<?xml version="1.0" encoding="UTF-8"?>
<svg class="animated" version="1.1" viewBox="0 0 500 500" xmlns="http://www.w3.org/2000/svg">
<style>svg#freepik_stories-order-food:not(.animated) .animable {opacity: 0;}svg#freepik_stories-order-food.animated #freepik--speech-bubble--inject-11 {animation: 1.5s Infinite  linear floating;animation-delay: 0s;}svg#freepik_stories-order-food.animated #freepik--Character--inject-11 {animation: 1s 1 forwards cubic-bezier(.36,-0.01,.5,1.38) slideDown;animation-delay: 0s;}            @keyframes floating {                0% {                    opacity: 1;                    transform: translateY(0px);                }                50% {                    transform: translateY(-10px);                }                100% {                    opacity: 1;                    transform: translateY(0px);                }            }                    @keyframes slideDown {                0% {                    opacity: 0;                    transform: translateY(-30px);                }                100% {                    opacity: 1;                    transform: translateY(0);                }            }</style>
<g class="animable" style="transform-origin:256.01px 263.53px">
<path class="animable" d="m81.52 188.8a1.35 1.35 0 0 1 0-0.24v-0.66-2.53c0-2.22 0-5.42-0.08-9.44l0.15 0.15-48.65 0.09 0.24-0.24v12.87l-0.24-0.25 34.67 0.11 10.23 0.07h2.77 0.72 0.26-0.23-0.69-2.72l-10.17 0.07-34.91 0.2h-0.25v-13l0.25-0.25 48.65 0.09h0.15v0.16c0 4.06-0.07 7.29-0.08 9.53v2.5 0.63a1.66 1.66 0 0 1-0.07 0.14z" fill="#e0e0e0" style="transform-origin:57.145px 182.375px"/>
<path class="animable" d="m88.11 175.93s0-0.09 0-0.25 0-0.41 0-0.68v-2.58c0-2.26 0-5.45-0.09-9.37l0.17 0.18-29.23 0.07c-0.22 0.22 0.3-0.3 0.25-0.24v6.6q0 3.24 0 6.24l-0.24-0.23 20.91 0.11 6.09 0.07h1.65 0.58-0.53l-1.67 0.15-6 0.07-21.07 0.11h-0.23v-0.24q0-3 0-6.24v-3.27-3.33l0.25-0.25 29.23 0.07h0.18v0.17c0 4-0.07 7.19-0.09 9.48v2.54a5 5 0 0 1-0.16 0.82z" fill="#e0e0e0" style="transform-origin:73.53px 169.515px"/>
<path class="animable" d="m228.85 72.58a1 1 0 0 1 0-0.23v-0.66-2.54c0-2.22-0.05-5.41-0.09-9.44l0.16 0.15-48.72 0.14c0.11-0.11-0.25 0.25 0.24-0.25v12.83l-0.25-0.24 34.67 0.11 10.24 0.07h2.77 0.72 0.26a1 1 0 0 1-0.23 0h-0.69-2.72l-10.21 0.19-34.84 0.11h-0.16v-9.82-1.64-1.63l0.26-0.25 48.65 0.1h0.09v0.15c0 4.07-0.07 7.29-0.09 9.53v2.5 0.64a1.23 1.23 0 0 1-0.06 0.18z" fill="#e0e0e0" style="transform-origin:204.5px 66.15px"/>
<path class="animable" d="m235.44 59.71s0-0.09 0-0.24 0-0.41 0-0.69v-2.58c0-2.25-0.06-5.44-0.1-9.36l0.18 0.18-29.23 0.07 0.25-0.25v3.33 3.28 6.24l-0.24-0.24 20.91 0.12 6.09 0.06h1.64 0.59a3.28 3.28 0 0 1-0.53 0h-1.59l-6 0.06-21.2 0.31h-0.21v-0.24-6.24-6.66l0.25-0.25 29.23 0.07h0.18v0.18c0 4-0.07 7.19-0.1 9.47v2.54a6.65 6.65 0 0 1-0.12 0.84z" fill="#e0e0e0" style="transform-origin:220.83px 53.305px"/>
<polygon class="animable" points="183.43 49.05 183.43 132.87 63.05 132.87 58.71 49.64" fill="#e0e0e0" style="transform-origin:121.07px 90.96px"/>
<rect class="animable" x="77.38" y="30.97" width="83.05" height="120.38" fill="#fff" style="transform-origin:118.905px 91.16px;transform:rotate(-90deg)"/>
<path class="animable" d="M179.67,133.26H58.14V49.06H179.67ZM59.28,132.12H178.53V50.21H59.28Z" fill="#e0e0e0" style="transform-origin:118.905px 91.16px"/>
<rect class="animable" x="71.75" y="59.95" width="94.31" height="62.42" fill="#fff" style="transform-origin:118.905px 91.16px"/>
<path class="animable" d="m166.06 60a4.24 4.24 0 0 1-0.47 0h-1.34-5.18l-19.43 0.07-67.89 0.14 0.25-0.21v62.41l-0.3-0.3 94.31 0.06-0.24 0.24c0.05-19 0.1-34.57 0.13-45.41 0-5.42 0-9.66 0.06-12.56v-3.3s0-1.15 0-1.15 0 0.37 0 1.1 0 1.84 0 3.26c0 2.89 0 7.1 0.06 12.5 0 10.88 0.07 26.5 0.12 45.56v0.24h-0.24l-94.31 0.06h-0.3v-0.3-62.41-0.27h0.27l68.07 0.14 19.37 0.07h5.12 1.31z" fill="#e0e0e0" style="transform-origin:118.715px 91.22px"/>
<path class="animable" d="M58.71,49.4a10.29,10.29,0,0,1,2.07,1.34c1.23.89,2.91,2.15,4.72,3.6s3.4,2.82,4.53,3.85A10.06,10.06,0,0,1,71.75,60c-.11.13-3-2.26-6.62-5.14S58.61,49.54,58.71,49.4Z" fill="#e0e0e0" style="transform-origin:65.2287px 54.7025px"/>
<path class="animable" d="m179.1 49.64a60.52 60.52 0 0 1-6.34 5.36 57.88 57.88 0 0 1-6.7 4.92 59.72 59.72 0 0 1 6.33-5.39c3.61-2.82 6.61-5.02 6.71-4.89z" fill="#e0e0e0" style="transform-origin:172.58px 54.7773px"/>
<path class="animable" d="m179 132.7-13.42-10.88" fill="#fff" style="transform-origin:172.29px 127.26px"/>
<path class="animable" d="m165.58 121.82a65.78 65.78 0 0 1 6.9 5.21 64.51 64.51 0 0 1 6.52 5.67 62.55 62.55 0 0 1-6.9-5.21c-3.7-3-6.63-5.49-6.52-5.67z" fill="#e0e0e0" style="transform-origin:172.288px 127.26px"/>
<path class="animable" d="m58.71 132.69a57.78 57.78 0 0 1 6.29-5.34 56.47 56.47 0 0 1 6.64-4.87 57.78 57.78 0 0 1-6.27 5.34 56.47 56.47 0 0 1-6.66 4.87z" fill="#e0e0e0" style="transform-origin:65.175px 127.585px"/>
<rect class="animable" x="110.12" y="60.18" width="20.9" height="59.34" fill="#e0e0e0" style="transform-origin:120.57px 89.85px;transform:rotate(-90deg)"/>
<polygon class="animable" points="302.04 442.18 302.04 480.45 358 480.45 419.72 480.45 419.72 442.18" fill="#f5f5f5" style="transform-origin:360.88px 461.315px"/>
<polygon class="animable" points="297.1 431.48 297.1 442.18 423.83 442.18 423.83 431.48 358 431.48" fill="#e0e0e0" style="transform-origin:360.465px 436.83px"/>
<polygon class="animable" points="360.47 480.45 419.72 480.45 419.72 442.18 423.83 442.18 423.83 431.48 358 431.48 358 441.19" fill="#e0e0e0" style="transform-origin:390.915px 455.965px"/>
<rect class="animable" x="318.5" y="448.35" width="23.87" height="5.76" fill="#e0e0e0" style="transform-origin:330.435px 451.23px"/>
<rect class="animable" x="315.43" y="461.31" width="30.64" height="12.16" fill="#fff" style="transform-origin:330.75px 467.39px"/>
<rect class="animable" x="195.01" y="222.46" width="48.65" height="12.87" fill="#ebebeb" style="transform-origin:219.335px 228.895px"/>
<path class="animable" d="m223.09 248.89a1.35 1.35 0 0 1 0-0.24v-0.65-2.53c0-2.22-0.05-5.42-0.08-9.44l0.15 0.15-48.65 0.09 0.24-0.24v12.85l-0.24-0.24 34.67 0.11 10.23 0.06h2.77 0.72 0.26-0.23-0.69-2.72l-10.17 0.07-34.84 0.11h-0.25v-12.99l0.25-0.25 48.65 0.1h0.15v0.15c0 4.06-0.06 7.29-0.08 9.53v2.5 0.63a1.66 1.66 0 0 1-0.14 0.23z" fill="#e0e0e0" style="transform-origin:198.785px 242.37px"/>
<rect class="animable" x="430.75" y="145.7" width="48.65" height="12.87" fill="#ebebeb" style="transform-origin:455.075px 152.135px"/>
<path class="animable" d="m458.83 172.13s0-0.09 0-0.24v-0.66-2.53c0-2.22-0.05-5.42-0.08-9.44l0.15 0.15-48.65 0.09 0.25-0.24v3.29 3.25 6.33l-0.24-0.25 34.67 0.11 10.23 0.07h2.77 0.72 0.26-0.22-0.7-2.71l-10.18 0.07-34.84 0.11h-0.24v-0.24-6.33-6.54l0.25-0.25 48.65 0.09h0.08v0.16c0 4.06-0.06 7.29-0.08 9.53v2.5 0.63a0.85 0.85 0 0 1-0.09 0.34z" fill="#e0e0e0" style="transform-origin:434.51px 165.56px"/>
</g>
<g class="animable" style="transform-origin:250px 481.69px">
<path class="animable" d="M473.7,481.69c0,.14-100.16.26-223.69.26s-223.71-.12-223.71-.26,100.14-.26,223.71-.26S473.7,481.54,473.7,481.69Z" fill="#263238" style="transform-origin:250px 481.69px"/>
</g>
<g class="animable" style="transform-origin:354.35px 223.06px">
<rect class="animable" x="256.59" y="29.43" width="195.56" height="387.26" rx="25.34" fill="#455a64" style="transform-origin:354.37px 223.06px"/>
<rect class="animable" x="163.83" y="128.36" width="381.1" height="189.4" rx="22.23" fill="#263238" style="transform-origin:354.38px 223.06px;transform:rotate(90deg)"/>
<path class="animable" d="m340.33 44.72a2.18 2.18 0 1 1 0-4.35h28a2.18 2.18 0 0 1 0 4.35z" fill="#455a64" style="transform-origin:354.182px 42.545px"/>
<path class="animable" d="m325.33 44.72a2.18 2.18 0 1 1 2.18-2.18 2.18 2.18 0 0 1-2.18 2.18z" fill="#455a64" style="transform-origin:325.33px 42.54px"/>
<path class="animable" d="m333.34 44.72a2.18 2.18 0 1 1 2.17-2.18 2.19 2.19 0 0 1-2.17 2.18z" fill="#455a64" style="transform-origin:333.33px 42.54px"/>
<path class="animable" d="m383.42 44.72a2.18 2.18 0 1 1 2.17-2.18 2.19 2.19 0 0 1-2.17 2.18z" fill="#455a64" style="transform-origin:383.41px 42.54px"/>
<path class="animable" d="m375.41 44.72a2.18 2.18 0 1 1 2.18-2.18 2.18 2.18 0 0 1-2.18 2.18z" fill="#455a64" style="transform-origin:375.41px 42.54px"/>
<path class="animable" d="M427.86,34.71H400.4a9.78,9.78,0,0,0-9.38,7l-.47,1.6a10.46,10.46,0,0,1-10,7.55H328.24a10.47,10.47,0,0,1-10.05-7.55l-.46-1.6a9.78,9.78,0,0,0-9.39-7H283.43a19.35,19.35,0,0,0-19.35,19.35v335.8a18.2,18.2,0,0,0,18.2,18.2H428.19a16.47,16.47,0,0,0,16.48-16.47V51.52A16.82,16.82,0,0,0,427.86,34.71Z" fill="#fff" style="transform-origin:354.375px 221.385px"/>
<path class="animable" d="m453.22 113.6h0.22v44.51h-0.22a1.07 1.07 0 0 1-1.07-1.07v-42.37a1.07 1.07 0 0 1 1.07-1.07z" fill="#455a64" style="transform-origin:452.795px 135.855px;transform:rotate(180deg)"/>
<path class="animable" d="m256.33 141h0.26v28.18h-0.26a1.07 1.07 0 0 1-1.07-1.07v-26a1.07 1.07 0 0 1 1.07-1.11z" fill="#455a64" style="transform-origin:255.925px 155.09px"/>
<path class="animable" d="m256.33 104.21h0.26v28.18h-0.26a1.07 1.07 0 0 1-1.07-1.07v-26a1.07 1.07 0 0 1 1.07-1.11z" fill="#455a64" style="transform-origin:255.925px 118.3px"/>
<path class="animable" d="m256.4 76.58h0.2v13.1h-0.2a0.95 0.95 0 0 1-0.95-0.95v-11.2a0.95 0.95 0 0 1 0.95-0.95z" fill="#455a64" style="transform-origin:256.025px 83.13px"/>
<rect class="animable" x="400.83" y="47.72" width="1.34" height="1.88" fill="#263238" style="transform-origin:401.5px 48.66px"/>
<rect class="animable" x="403.01" y="46.88" width="1.34" height="2.72" fill="#263238" style="transform-origin:403.68px 48.24px"/>
<rect class="animable" x="405.2" y="46.26" width="1.34" height="3.35" fill="#263238" style="transform-origin:405.87px 47.935px"/>
<rect class="animable" x="407.39" y="45.04" width="1.34" height="4.57" fill="#263238" style="transform-origin:408.06px 47.325px"/>
<path class="animable" d="M428.56,49.7h-6.74a.49.49,0,0,1-.49-.48V45.87a.49.49,0,0,1,.48-.49h6.75a.18.18,0,0,1,.09,0,.12.12,0,0,1,0,.09v1.1h.72a.13.13,0,0,1,.13.12v1.62a.12.12,0,0,1-.13.12h-.72v1.11A.12.12,0,0,1,428.56,49.7Zm-.12-4.07h-6.63a.23.23,0,0,0-.23.24v3.35a.23.23,0,0,0,.24.23h6.62v-1.1a.12.12,0,0,1,.12-.12h.72V46.86h-.72a.12.12,0,0,1-.12-.13Z" fill="#263238" style="transform-origin:425.415px 47.5371px"/>
<polygon class="animable" points="422.13 48.9 422.13 46.18 427.89 46.18 427.89 47.41 427.89 47.68 427.89 48.9" fill="#263238" style="transform-origin:425.01px 47.54px"/>
<path class="animable" d="M415.16,49.44a.5.5,0,1,0-.49.5A.49.49,0,0,0,415.16,49.44Z" fill="#263238" style="transform-origin:414.66px 49.4401px"/>
<path class="animable" d="M413,48.26l.63.62a1.54,1.54,0,0,1,1.06-.43,1.52,1.52,0,0,1,1.05.43l.63-.62a2.38,2.38,0,0,0-3.37,0Z" fill="#263238" style="transform-origin:414.685px 48.2204px"/>
<path class="animable" d="M414.67,46.16A3.76,3.76,0,0,0,412,47.27l.63.62a2.91,2.91,0,0,1,4.09,0l.63-.62A3.76,3.76,0,0,0,414.67,46.16Z" fill="#263238" style="transform-origin:414.675px 47.025px"/>
<path class="animable" d="M411,46.24l.63.63a4.33,4.33,0,0,1,6.13,0l.63-.63a5.23,5.23,0,0,0-7.39,0Z" fill="#263238" style="transform-origin:414.695px 45.7907px"/>
<path class="animable" d="m338.42 73.08v2.19h3.84v1.55h-3.84v3h-1.92v-8.3h6.27v1.54z" fill="#263238" style="transform-origin:339.635px 75.67px"/>
<path class="animable" d="M345,79.51a3.21,3.21,0,0,1-1.26-1.16,3.44,3.44,0,0,1,0-3.4A3.21,3.21,0,0,1,345,73.79a4.09,4.09,0,0,1,3.61,0A3.15,3.15,0,0,1,349.86,75a3.44,3.44,0,0,1,0,3.4,3.15,3.15,0,0,1-1.24,1.16,4,4,0,0,1-3.61,0Zm3-1.57a2,2,0,0,0,0-2.58,1.52,1.52,0,0,0-1.16-.48,1.57,1.57,0,0,0-1.18.48,2,2,0,0,0,0,2.58,1.57,1.57,0,0,0,1.18.48A1.52,1.52,0,0,0,348,77.94Z" fill="#263238" style="transform-origin:346.8px 76.6803px"/>
<path class="animable" d="M352.77,79.51a3.18,3.18,0,0,1-1.25-1.16,3.44,3.44,0,0,1,0-3.4,3.18,3.18,0,0,1,1.25-1.16,3.86,3.86,0,0,1,1.81-.42,3.81,3.81,0,0,1,1.81.42A3.15,3.15,0,0,1,357.63,75a3.44,3.44,0,0,1,0,3.4,3.15,3.15,0,0,1-1.24,1.16,3.7,3.7,0,0,1-1.81.43A3.75,3.75,0,0,1,352.77,79.51Zm3-1.57a2,2,0,0,0,0-2.58,1.53,1.53,0,0,0-1.17-.48,1.56,1.56,0,0,0-1.17.48,2,2,0,0,0,0,2.58,1.56,1.56,0,0,0,1.17.48A1.53,1.53,0,0,0,355.75,77.94Z" fill="#263238" style="transform-origin:354.575px 76.6801px"/>
<path class="animable" d="M365.81,71v8.8h-1.76v-.73a2.47,2.47,0,0,1-2,.83,3.32,3.32,0,0,1-1.63-.41,2.93,2.93,0,0,1-1.14-1.15,3.77,3.77,0,0,1,0-3.46,2.93,2.93,0,0,1,1.14-1.15,3.31,3.31,0,0,1,1.63-.4,2.39,2.39,0,0,1,1.91.77V71Zm-2.27,6.9a2,2,0,0,0,0-2.58,1.67,1.67,0,0,0-2.34,0,2,2,0,0,0,0,2.58,1.67,1.67,0,0,0,2.34,0Z" fill="#263238" style="transform-origin:362.335px 75.4523px"/>
<rect class="animable" x="272.95" y="289.2" width="161.46" height="41.68" fill="#e0e0e0" style="transform-origin:353.68px 310.04px"/>
<path class="animable" d="m285.51 308.15h-2.66v-1.56h7.24v1.56h-2.66v6.74h-1.92z" fill="#263238" style="transform-origin:286.47px 310.74px"/>
<path class="animable" d="M292.69,314.47a4.12,4.12,0,0,1-1.62-1.53,4.24,4.24,0,0,1-.59-2.2,4.19,4.19,0,0,1,.59-2.2,4.07,4.07,0,0,1,1.62-1.54,5.13,5.13,0,0,1,4.66,0,4.28,4.28,0,0,1,1.62,5.94,4.19,4.19,0,0,1-1.62,1.53,5.13,5.13,0,0,1-4.66,0Zm3.66-1.41a2.36,2.36,0,0,0,.93-.95,3,3,0,0,0,0-2.75,2.34,2.34,0,0,0-.93-.94,2.77,2.77,0,0,0-2.66,0,2.47,2.47,0,0,0-.93.94,3,3,0,0,0,0,2.75,2.5,2.5,0,0,0,.93.95,2.85,2.85,0,0,0,2.66,0Z" fill="#263238" style="transform-origin:295.025px 310.735px"/>
<path class="animable" d="M302.61,308.15H300v-1.56h7.23v1.56h-2.66v6.74h-1.92Z" fill="#263238" style="transform-origin:303.615px 310.74px"/>
<path class="animable" d="M313.28,313.11h-3.86l-.73,1.78h-2l3.7-8.3h1.9l3.71,8.3h-2Zm-.61-1.46-1.32-3.18L310,311.65Z" fill="#263238" style="transform-origin:311.345px 310.74px"/>
<path class="animable" d="M316.89,306.59h1.93v6.73H323v1.57h-6.09Z" fill="#263238" style="transform-origin:319.945px 310.74px"/>
<path class="animable" d="M324,310.39a1.13,1.13,0,0,1-.33-.83,1.08,1.08,0,0,1,.33-.82,1.17,1.17,0,0,1,.82-.32,1.14,1.14,0,0,1,.82.32,1.08,1.08,0,0,1,.33.82,1.13,1.13,0,0,1-.33.83,1.11,1.11,0,0,1-.82.33A1.14,1.14,0,0,1,324,310.39Zm0,4.26a1.13,1.13,0,0,1-.33-.83A1.08,1.08,0,0,1,324,313a1.17,1.17,0,0,1,.82-.32,1.14,1.14,0,0,1,.82.32,1.08,1.08,0,0,1,.33.82,1.13,1.13,0,0,1-.33.83,1.11,1.11,0,0,1-.82.33A1.14,1.14,0,0,1,324,314.65Z" fill="#263238" style="transform-origin:324.82px 311.7px"/>
<path class="animable" d="M404.84,313.49a3.43,3.43,0,0,1-2,.86v1.33H401.6v-1.29a6.58,6.58,0,0,1-1.67-.31,4.13,4.13,0,0,1-1.28-.64l.65-1.45a4.24,4.24,0,0,0,1.06.56,4.77,4.77,0,0,0,1.24.29v-2a8.24,8.24,0,0,1-1.42-.45,2.42,2.42,0,0,1-1-.73,1.9,1.9,0,0,1-.4-1.27,2.28,2.28,0,0,1,.72-1.69,3.4,3.4,0,0,1,2.07-.86v-1.32h1.19v1.3a5.11,5.11,0,0,1,2.4.72L404.6,308a4.7,4.7,0,0,0-1.81-.62v2a8.08,8.08,0,0,1,1.4.43,2.4,2.4,0,0,1,1,.72,2,2,0,0,1,.39,1.27A2.25,2.25,0,0,1,404.84,313.49Zm-3.89-4.7a1.87,1.87,0,0,0,.65.32v-1.68a1.28,1.28,0,0,0-.66.33.76.76,0,0,0-.22.54A.62.62,0,0,0,401,308.79Zm2.48,3.69a.69.69,0,0,0,.21-.51.61.61,0,0,0-.22-.49,2.15,2.15,0,0,0-.63-.33v1.64A1.37,1.37,0,0,0,403.43,312.48Z" fill="#263238" style="transform-origin:402.116px 310.1px"/>
<path class="animable" d="M412.41,313.49a3.43,3.43,0,0,1-2.06.86v1.33h-1.18v-1.29a6.5,6.5,0,0,1-1.67-.31,4.31,4.31,0,0,1-1.29-.64l.66-1.45a4.35,4.35,0,0,0,1.05.56,4.94,4.94,0,0,0,1.25.29v-2a8.37,8.37,0,0,1-1.43-.45,2.49,2.49,0,0,1-1-.73,2,2,0,0,1-.39-1.27,2.28,2.28,0,0,1,.72-1.69,3.4,3.4,0,0,1,2.07-.86v-1.32h1.18v1.3a5.12,5.12,0,0,1,2.41.72l-.59,1.46a4.69,4.69,0,0,0-1.82-.62v2a7.94,7.94,0,0,1,1.41.43,2.54,2.54,0,0,1,1,.72,2,2,0,0,1,.39,1.27A2.25,2.25,0,0,1,412.41,313.49Zm-3.89-4.7a1.79,1.79,0,0,0,.65.32v-1.68a1.36,1.36,0,0,0-.67.33.8.8,0,0,0-.21.54A.59.59,0,0,0,408.52,308.79Zm2.47,3.69a.67.67,0,0,0,.22-.51.64.64,0,0,0-.22-.49,2.22,2.22,0,0,0-.64-.33v1.64A1.32,1.32,0,0,0,411,312.48Z" fill="#263238" style="transform-origin:409.666px 310.1px"/>
<path class="animable" d="M420,313.49a3.4,3.4,0,0,1-2.05.86v1.33h-1.19v-1.29a6.58,6.58,0,0,1-1.67-.31,4.25,4.25,0,0,1-1.28-.64l.65-1.45a4.43,4.43,0,0,0,1.06.56,4.86,4.86,0,0,0,1.24.29v-2a8.24,8.24,0,0,1-1.42-.45,2.42,2.42,0,0,1-1-.73,2,2,0,0,1-.39-1.27,2.28,2.28,0,0,1,.72-1.69,3.35,3.35,0,0,1,2.06-.86v-1.32h1.19v1.3a5.15,5.15,0,0,1,2.41.72l-.59,1.46a4.75,4.75,0,0,0-1.82-.62v2a8.5,8.5,0,0,1,1.41.43,2.44,2.44,0,0,1,1,.72,2,2,0,0,1,.39,1.27A2.22,2.22,0,0,1,420,313.49Zm-3.89-4.7a1.87,1.87,0,0,0,.65.32v-1.68a1.28,1.28,0,0,0-.66.33.8.8,0,0,0-.21.54A.61.61,0,0,0,416.08,308.79Zm2.48,3.69a.7.7,0,0,0,.22-.51.64.64,0,0,0-.22-.49,2.22,2.22,0,0,0-.64-.33v1.64A1.32,1.32,0,0,0,418.56,312.48Z" fill="#263238" style="transform-origin:417.266px 310.1px"/>
<path class="animable" d="M435.23,91.16c0,.14-37.12.26-82.9.26s-82.9-.12-82.9-.26,37.11-.27,82.9-.27S435.23,91,435.23,91.16Z" fill="#263238" style="transform-origin:352.33px 91.155px"/>
<path class="animable" d="m401.38 384.18h-94.14a19.66 19.66 0 0 1-19.66-19.66 19.67 19.67 0 0 1 19.66-19.67h94.14a19.67 19.67 0 0 1 19.67 19.67 19.67 19.67 0 0 1-19.67 19.66z" fill="#ed543d" style="transform-origin:354.315px 364.515px"/>
<path class="animable" d="M332.54,369.87a4.23,4.23,0,0,1,0-7.47,4.86,4.86,0,0,1,2.33-.55,4.79,4.79,0,0,1,2.32.55,4.24,4.24,0,0,1,1.63,1.54,4.22,4.22,0,0,1-1.63,5.93,4.69,4.69,0,0,1-2.32.56A4.75,4.75,0,0,1,332.54,369.87Zm3.66-1.41a2.5,2.5,0,0,0,.93-.95,2.7,2.7,0,0,0,.34-1.37,2.74,2.74,0,0,0-.34-1.38,2.54,2.54,0,0,0-.93-.94,2.77,2.77,0,0,0-2.66,0,2.54,2.54,0,0,0-.93.94,2.85,2.85,0,0,0-.34,1.38,2.81,2.81,0,0,0,.34,1.37,2.5,2.5,0,0,0,.93.95,2.77,2.77,0,0,0,2.66,0Z" fill="#fff" style="transform-origin:334.867px 366.14px"/>
<path class="animable" d="M346.15,370.29l-1.6-2.31h-1.77v2.31h-1.92V362h3.59a4.7,4.7,0,0,1,1.92.36,2.77,2.77,0,0,1,1.69,2.65,2.71,2.71,0,0,1-1.71,2.62l1.86,2.67Zm-.49-6.36a2,2,0,0,0-1.31-.38h-1.57v2.9h1.57a2,2,0,0,0,1.31-.38,1.33,1.33,0,0,0,.45-1.07A1.31,1.31,0,0,0,345.66,363.93Z" fill="#fff" style="transform-origin:344.535px 366.149px"/>
<path class="animable" d="M349.58,362h3.77a5.35,5.35,0,0,1,2.39.51,3.87,3.87,0,0,1,1.61,1.46,4.39,4.39,0,0,1,0,4.36,3.78,3.78,0,0,1-1.61,1.45,5.22,5.22,0,0,1-2.39.52h-3.77Zm3.67,6.72a2.8,2.8,0,0,0,2-.69,2.76,2.76,0,0,0,0-3.76,2.81,2.81,0,0,0-2-.7H351.5v5.15Z" fill="#fff" style="transform-origin:353.755px 366.15px"/>
<path class="animable" d="M365.8,368.75v1.54h-6.43V362h6.28v1.54h-4.37v1.8h3.86v1.5h-3.86v1.92Z" fill="#fff" style="transform-origin:362.585px 366.145px"/>
<path class="animable" d="M372.62,370.29,371,368h-1.77v2.31h-1.92V362h3.59a4.7,4.7,0,0,1,1.92.36,2.85,2.85,0,0,1,0,5.27l1.86,2.67Zm-.49-6.36a2,2,0,0,0-1.31-.38h-1.57v2.9h1.57a2,2,0,0,0,1.31-.38,1.33,1.33,0,0,0,.45-1.07A1.31,1.31,0,0,0,372.13,363.93Z" fill="#fff" style="transform-origin:370.995px 366.154px"/>
<rect class="animable" x="271.91" y="98.12" width="56.05" height="54.91" fill="#ebebeb" style="transform-origin:299.935px 125.575px"/>
<path class="animable" d="m271.91 98.12h0.79 2.3 9.12l34.1-0.08 117.2-0.11h0.25v0.25 54.9 0.26h-0.26l-163.55-0.09h-0.17v-0.25c0-17.24 0.07-31 0.1-40.42v-10.79-2.77s0-0.93 0-0.93 0 0.33 0 1 0 1.58 0 2.81v10.82c0 9.42 0.06 23.12 0.1 40.32l-0.18-0.18 163.55-0.08-0.26 0.26v-54.92l0.26 0.25-117-0.11-34.17-0.08h-9.16-2.38z" fill="#263238" style="transform-origin:353.68px 125.635px"/>
<polygon class="animable" points="312.24 124.62 310.42 133.55 316.35 133.42" fill="#ed543d" style="transform-origin:313.385px 129.085px"/>
<g class="animable" opacity=".3" style="transform-origin:313.385px 129.085px">
<polygon class="animable" points="312.24 124.62 310.42 133.55 316.35 133.42" style="transform-origin:313.385px 129.085px"/>
</g>
<polygon class="animable" points="286.82 124.91 288.64 133.84 282.71 133.7" fill="#ed543d" style="transform-origin:285.675px 129.375px"/>
<g class="animable" opacity=".3" style="transform-origin:285.675px 129.375px">
<polygon class="animable" points="286.82 124.91 288.64 133.84 282.71 133.7" style="transform-origin:285.675px 129.375px"/>
</g>
<path class="animable" d="M302,126.56h0a.75.75,0,0,1-.75-.71l-.86-20.92a.74.74,0,0,1,.75-.78h1a.75.75,0,0,1,.75.75l-.18,20.92A.75.75,0,0,1,302,126.56Z" fill="#844031" style="transform-origin:301.639px 115.355px"/>
<rect class="animable" x="300.48" y="106.82" width="2.47" height="1.82" fill="#ed543d" style="transform-origin:301.715px 107.73px"/>
<path class="animable" d="M303.7,126.64h0a.74.74,0,0,1-.45-.93l6.37-19.94a.74.74,0,0,1,1-.48l1,.36a.75.75,0,0,1,.44,1l-7.35,19.58A.74.74,0,0,1,303.7,126.64Z" fill="#844031" style="transform-origin:307.666px 115.971px"/>
<rect class="animable" x="308.98" y="107.61" width="1.82" height="2.47" fill="#ed543d" style="transform-origin:309.89px 108.845px;transform:rotate(-69.92deg)"/>
<path class="animable" d="M310.82,121.33a4.93,4.93,0,0,0-3.44-2.18,7,7,0,0,0-4,.71c-1,.46-2,1.09-3,.88a5.82,5.82,0,0,1-2-1.12,7,7,0,0,0-5.33-1.08,7.66,7.66,0,0,0-4.62,3.19,5.11,5.11,0,0,0-.9,4.21l23.62-.09A5.08,5.08,0,0,0,310.82,121.33Z" fill="#fff" style="transform-origin:299.466px 122.171px"/>
<path class="animable" d="M310.19,125.32a5,5,0,0,0,0-1.16,4.3,4.3,0,0,0-1.33-2.79,3.37,3.37,0,0,0-1.95-.85,5.46,5.46,0,0,0-2.45.34c-.83.28-1.61.82-2.53,1.19a3.57,3.57,0,0,1-1.5.27,4,4,0,0,1-1.5-.41c-.95-.45-1.75-1.08-2.61-1.52a5,5,0,0,0-2.65-.59,5.36,5.36,0,0,0-4,2.18,7,7,0,0,0-1.25,2.89c-.07.37-.09.66-.11.86a1.16,1.16,0,0,1,0,.3,4.93,4.93,0,0,1,.06-1.17,6.83,6.83,0,0,1,1.21-3,5.49,5.49,0,0,1,4.08-2.28,5.26,5.26,0,0,1,2.76.6c.88.45,1.68,1.07,2.6,1.51a3.28,3.28,0,0,0,2.83.14c.89-.36,1.68-.89,2.55-1.18a5.64,5.64,0,0,1,2.53-.34,3.64,3.64,0,0,1,2,.92,4.27,4.27,0,0,1,1.31,2.89A3.17,3.17,0,0,1,310.19,125.32Z" fill="#263238" style="transform-origin:299.287px 122.801px"/>
<path class="animable" d="M309.07,125.6a6.75,6.75,0,0,0,0-1,3.17,3.17,0,0,0-1.3-2.33,2.54,2.54,0,0,0-1.78-.43,5.42,5.42,0,0,0-2,.85,8.65,8.65,0,0,1-2.21,1.12,4.2,4.2,0,0,1-2.65-.26c-1.7-.67-3.07-1.81-4.6-2.11a4,4,0,0,0-3.72,1.18,5.18,5.18,0,0,0-1.27,2.43c-.14.64-.12,1-.15,1a4.21,4.21,0,0,1,.07-1,5,5,0,0,1,1.25-2.51,4.11,4.11,0,0,1,3.86-1.27c1.59.31,3,1.46,4.64,2.11a4.08,4.08,0,0,0,2.52.25,8.57,8.57,0,0,0,2.16-1.08,5.54,5.54,0,0,1,2.07-.86,2.6,2.6,0,0,1,1.89.48,3.23,3.23,0,0,1,1.3,2.45A2.67,2.67,0,0,1,309.07,125.6Z" fill="#263238" style="transform-origin:299.275px 123.619px"/>
<path class="animable" d="M307.61,125.61a1.7,1.7,0,0,0-.13-.79,1.67,1.67,0,0,0-.6-.69,1.73,1.73,0,0,0-1.19-.18c-.94.14-1.77,1-3,1.41a5.6,5.6,0,0,1-4-.54,21.74,21.74,0,0,0-3.72-1.59,3.82,3.82,0,0,0-3.12.41,3.22,3.22,0,0,0-1.25,1.75,4.9,4.9,0,0,0-.12.8,2.06,2.06,0,0,1,0-.82,3.2,3.2,0,0,1,1.25-1.85,3.89,3.89,0,0,1,3.25-.47,20.07,20.07,0,0,1,3.75,1.58,5.48,5.48,0,0,0,3.86.55c1.15-.39,2-1.25,3-1.37a1.79,1.79,0,0,1,1.27.22,1.72,1.72,0,0,1,.62.76,1.23,1.23,0,0,1,.09.61A.71.71,0,0,1,307.61,125.61Z" fill="#263238" style="transform-origin:299.027px 124.538px"/>
<path class="animable" d="M286.78,124.83c0,.61,4.34,22.9,4.34,22.9l17-.28,4.1-22.83Z" fill="#ed543d" style="transform-origin:299.5px 136.175px"/>
<path class="animable" d="M286.78,124.83h.48l1.43,0,5.34-.07,18.21-.2h.16l-.07.15-2.63,5.23q-1.14,2.25-2.21,4.39l0,.05h-.07l-15.86,0h0l0,0-4.68-9.45,4.82,9.38-.07-.05,15.86,0-.09.05,2.21-4.38c.9-1.79,1.78-3.55,2.63-5.23l.1.15Z" fill="#263238" style="transform-origin:299.59px 129.47px"/>
<g class="animable" opacity=".3" style="transform-origin:301.91px 130.295px">
<polygon class="animable" points="291.99 134.24 292.42 135.17 307.85 135.17 311.83 125.42 307.39 134.24" style="transform-origin:301.91px 130.295px"/>
</g>
<path class="animable" d="m303 143.62a41.51 41.51 0 0 1-6 0 45.65 45.65 0 0 1 6 0z" fill="#fff" style="transform-origin:300px 143.625px"/>
<path class="animable" d="M301.91,140.07s0-.17-.1-.47a1.9,1.9,0,1,0-2.51,2.23,1.87,1.87,0,0,0,1.79-.25,1.93,1.93,0,0,0,.72-1c.08-.29.08-.47.1-.47a1.32,1.32,0,0,1,0,.49,2,2,0,0,1-.71,1.14,2,2,0,0,1-1.94.31,2.05,2.05,0,0,1,0-3.88,2,2,0,0,1,1.94.32,1.92,1.92,0,0,1,.71,1.13A1.31,1.31,0,0,1,301.91,140.07Z" fill="#fff" style="transform-origin:299.903px 140.112px"/>
<path class="animable" d="M292,116.94a.69.69,0,0,0,.44-.44,1,1,0,0,0,0-.73,3.4,3.4,0,0,0-.56-.84,2.9,2.9,0,0,1,.39-4c.4-.37.89-.74.95-1.29a1.93,1.93,0,0,0-.68-1.43,5.45,5.45,0,0,1-1-1.28,3.37,3.37,0,0,1-.11-2.7,3.27,3.27,0,0,1,1.13-1.44,2,2,0,0,1,.6-.32s-.21.11-.55.38a3.32,3.32,0,0,0-1,1.43,3.25,3.25,0,0,0,.14,2.56,5.75,5.75,0,0,0,1,1.24,2.07,2.07,0,0,1,.74,1.58,2.52,2.52,0,0,1-1,1.42,2.74,2.74,0,0,0-.42,3.76,3.36,3.36,0,0,1,.56.89,1.09,1.09,0,0,1,0,.8C292.36,117,292,117,292,116.94Z" fill="#263238" style="transform-origin:292.345px 109.719px"/>
<path class="animable" d="M294.67,116.94a.69.69,0,0,0,.44-.44,1,1,0,0,0,0-.73,3.4,3.4,0,0,0-.56-.84,2.9,2.9,0,0,1,.39-4c.4-.37.89-.74.95-1.29a1.93,1.93,0,0,0-.68-1.43,5.45,5.45,0,0,1-1-1.28,3.37,3.37,0,0,1-.11-2.7,3.27,3.27,0,0,1,1.13-1.44,2,2,0,0,1,.6-.32s-.22.11-.55.38a3.32,3.32,0,0,0-1,1.43,3.21,3.21,0,0,0,.14,2.56,5.75,5.75,0,0,0,1,1.24,2.07,2.07,0,0,1,.74,1.58,2.52,2.52,0,0,1-1,1.42,2.78,2.78,0,0,0-.85,1.27,2.73,2.73,0,0,0,.43,2.49,3.36,3.36,0,0,1,.56.89,1.09,1.09,0,0,1,0,.8C295,117,294.64,117,294.67,116.94Z" fill="#263238" style="transform-origin:295.015px 109.719px"/>
<rect class="animable" x="338.83" y="107.97" width="32.45" height="4.42" fill="#ed543d" style="transform-origin:355.055px 110.18px"/>
<rect class="animable" x="338.83" y="118.87" width="85.59" height="2.83" fill="#e0e0e0" style="transform-origin:381.625px 120.285px"/>
<rect class="animable" x="338.83" y="124.54" width="85.59" height="2.83" fill="#e0e0e0" style="transform-origin:381.625px 125.955px"/>
<path class="animable" d="m401.67 141.25h-1.62v1.59h-1.2v-1.59h-1.62v-1.13h1.62v-1.58h1.2v1.58h1.62z" fill="#ed543d" style="transform-origin:399.45px 140.69px"/>
<path class="animable" d="M412.73,142.72v1.22h-4.92v-1l2.51-2.38a2.5,2.5,0,0,0,.54-.65,1.28,1.28,0,0,0,.14-.55.72.72,0,0,0-.27-.6,1.2,1.2,0,0,0-.77-.21,1.71,1.71,0,0,0-.77.17,1.42,1.42,0,0,0-.58.48l-1.1-.7a2.49,2.49,0,0,1,1.05-.89,3.45,3.45,0,0,1,1.54-.32,3.34,3.34,0,0,1,1.27.23,2,2,0,0,1,.84.67,1.69,1.69,0,0,1,.31,1,2.26,2.26,0,0,1-.23,1,3.65,3.65,0,0,1-.86,1.06l-1.5,1.42Z" fill="#ed543d" style="transform-origin:410.12px 140.614px"/>
<path class="animable" d="m418.74 140.74h2.64v1.17h-2.64z" fill="#ed543d" style="transform-origin:420.06px 141.325px"/>
<path class="animable" d="m424.42 148.22s0-0.11 0-0.29 0-0.49 0-0.81c0-0.75 0-1.77-0.05-3.07 0-2.68-0.06-6.47-0.1-11.14l0.19 0.19-32.33 0.07 0.26-0.26v7.88 7.42l-0.25-0.25 23.15 0.12 6.73 0.06h1.81 0.64a4 4 0 0 1-0.58 0h-1.76l-6.67 0.06-23.32 0.12h-0.25v-0.24-7.42-7.88l0.26-0.26 32.33 0.07h0.19v0.19c0 4.72-0.07 8.55-0.1 11.25 0 1.28 0 2.3-0.05 3v0.78a0.67 0.67 0 0 1-0.1 0.41z" fill="#263238" style="transform-origin:408.28px 140.42px"/>
<path class="animable" d="M345.36,143.33a3.43,3.43,0,0,1-2.05.86v1.33h-1.19v-1.29a6.5,6.5,0,0,1-1.67-.31,4.13,4.13,0,0,1-1.28-.64l.65-1.45a4.35,4.35,0,0,0,1.05.56,4.92,4.92,0,0,0,1.25.28v-2a8,8,0,0,1-1.42-.45,2.46,2.46,0,0,1-1-.73,2,2,0,0,1-.39-1.27,2.28,2.28,0,0,1,.72-1.69,3.4,3.4,0,0,1,2.07-.86v-1.32h1.19v1.29a5.23,5.23,0,0,1,2.4.73l-.59,1.46a4.7,4.7,0,0,0-1.81-.62v2a8.08,8.08,0,0,1,1.4.43,2.47,2.47,0,0,1,1,.72,2,2,0,0,1,.39,1.27A2.25,2.25,0,0,1,345.36,143.33Zm-3.89-4.7a1.79,1.79,0,0,0,.65.32v-1.68a1.36,1.36,0,0,0-.67.33.8.8,0,0,0-.21.54A.62.62,0,0,0,341.47,138.63Zm2.47,3.69a.67.67,0,0,0,.22-.51.61.61,0,0,0-.22-.49,2,2,0,0,0-.63-.33v1.64A1.33,1.33,0,0,0,343.94,142.32Z" fill="#e0e0e0" style="transform-origin:342.626px 139.935px"/>
<path class="animable" d="M354.33,143.33a3.43,3.43,0,0,1-2.06.86v1.33h-1.18v-1.29a6.42,6.42,0,0,1-1.67-.31,4.31,4.31,0,0,1-1.29-.64l.66-1.45a4.35,4.35,0,0,0,1,.56,4.92,4.92,0,0,0,1.25.28v-2a8.37,8.37,0,0,1-1.43-.45,2.49,2.49,0,0,1-1-.73,2,2,0,0,1-.39-1.27,2.28,2.28,0,0,1,.72-1.69,3.4,3.4,0,0,1,2.07-.86v-1.32h1.18v1.29a5.23,5.23,0,0,1,2.41.73l-.59,1.46a4.69,4.69,0,0,0-1.82-.62v2a7.94,7.94,0,0,1,1.41.43,2.54,2.54,0,0,1,1,.72,2,2,0,0,1,.39,1.27A2.25,2.25,0,0,1,354.33,143.33Zm-3.89-4.7a1.79,1.79,0,0,0,.65.32v-1.68a1.36,1.36,0,0,0-.67.33.8.8,0,0,0-.21.54A.59.59,0,0,0,350.44,138.63Zm2.47,3.69a.67.67,0,0,0,.22-.51.64.64,0,0,0-.22-.49,2,2,0,0,0-.64-.33v1.64A1.32,1.32,0,0,0,352.91,142.32Z" fill="#e0e0e0" style="transform-origin:351.561px 139.935px"/>
<path class="animable" d="M328,153.54c-.15,0-.26-12.33-.26-27.54s.11-27.55.26-27.55.26,12.33.26,27.55S328.16,153.54,328,153.54Z" fill="#263238" style="transform-origin:328px 125.995px"/>
<rect class="animable" x="271.91" y="158.7" width="56.05" height="54.91" fill="#ebebeb" style="transform-origin:299.935px 186.155px"/>
<path class="animable" d="m271.91 158.7h0.79 2.34 9.12l34.1-0.07 117.2-0.12h0.25v0.25 54.9 0.26h-0.26l-163.55-0.09h-0.17v-0.17c0-17.24 0.07-31 0.1-40.42v-10.78-2.78s0-0.93 0-0.93 0 0.33 0 1 0 1.57 0 2.8v10.82c0 9.42 0.06 23.13 0.1 40.32l-0.18-0.17 163.55-0.09-0.26 0.26v-54.99l0.26 0.25-117-0.11-34.17-0.07h-9.16-2.38z" fill="#263238" style="transform-origin:353.72px 186.215px"/>
<rect class="animable" x="338.83" y="168.55" width="32.45" height="4.42" fill="#ed543d" style="transform-origin:355.055px 170.76px"/>
<rect class="animable" x="338.83" y="179.46" width="85.59" height="2.83" fill="#e0e0e0" style="transform-origin:381.625px 180.875px"/>
<rect class="animable" x="338.83" y="185.12" width="85.59" height="2.83" fill="#e0e0e0" style="transform-origin:381.625px 186.535px"/>
<path class="animable" d="m401.67 201.84h-1.62v1.58h-1.2v-1.58h-1.62v-1.14h1.62v-1.58h1.2v1.58h1.62z" fill="#ed543d" style="transform-origin:399.45px 201.27px"/>
<path class="animable" d="M410.38,198v6.52h-1.51v-5.31h-1.3V198Z" fill="#ed543d" style="transform-origin:408.975px 201.26px"/>
<path class="animable" d="m416.9 201.32h2.64v1.17h-2.64z" fill="#ed543d" style="transform-origin:418.22px 201.905px"/>
<path class="animable" d="m424.42 208.8s0-0.11 0-0.29 0-0.48 0-0.81c0-0.75 0-1.77-0.05-3.07 0-2.68-0.06-6.47-0.1-11.14l0.19 0.19-32.33 0.07 0.26-0.26v7.89 7.41l-0.25-0.25 23.15 0.12 6.73 0.07h1.81 0.64a4 4 0 0 1-0.58 0h-1.76l-6.67 0.07-23.32 0.11h-0.25v-0.25-7.41-7.75l0.26-0.26 32.33 0.07h0.19v0.19c0 4.72-0.07 8.55-0.1 11.26 0 1.28 0 2.29-0.05 3v0.78a0.67 0.67 0 0 1-0.1 0.26z" fill="#263238" style="transform-origin:408.28px 201.075px"/>
<path class="animable" d="M345.36,203.91a3.43,3.43,0,0,1-2.05.86v1.33h-1.19v-1.29a6.1,6.1,0,0,1-1.67-.31,4.13,4.13,0,0,1-1.28-.64l.65-1.45a4,4,0,0,0,1.05.56,4.94,4.94,0,0,0,1.25.29v-2a10,10,0,0,1-1.42-.45,2.55,2.55,0,0,1-1-.73,2,2,0,0,1-.39-1.28,2.28,2.28,0,0,1,.72-1.69,3.4,3.4,0,0,1,2.07-.86V195h1.19v1.3a5.23,5.23,0,0,1,2.4.72l-.59,1.46a4.7,4.7,0,0,0-1.81-.62v2a9.06,9.06,0,0,1,1.4.43,2.49,2.49,0,0,1,1,.73,1.94,1.94,0,0,1,.39,1.26A2.24,2.24,0,0,1,345.36,203.91Zm-3.89-4.7a1.64,1.64,0,0,0,.65.32v-1.68a1.29,1.29,0,0,0-.67.34.76.76,0,0,0-.21.54A.6.6,0,0,0,341.47,199.21Zm2.47,3.69a.67.67,0,0,0,.22-.51.61.61,0,0,0-.22-.49,2.29,2.29,0,0,0-.63-.33v1.64A1.24,1.24,0,0,0,343.94,202.9Z" fill="#e0e0e0" style="transform-origin:342.626px 200.55px"/>
<path class="animable" d="M328,214.12c-.15,0-.26-12.33-.26-27.54S327.87,159,328,159s.26,12.33.26,27.55S328.16,214.12,328,214.12Z" fill="#263238" style="transform-origin:328px 186.56px"/>
<rect class="animable" x="271.91" y="219.14" width="56.05" height="54.91" fill="#ebebeb" style="transform-origin:299.935px 246.595px"/>
<path class="animable" d="m271.91 219.14h0.79 2.34 9.12l34.1-0.07 117.2-0.12h0.25v0.26 54.89 0.26h-0.26l-163.55-0.09h-0.17v-0.27c0-17.23 0.07-31 0.1-40.42v-10.78-2.77s0-0.93 0-0.93 0 0.33 0 1 0 1.58 0 2.8v10.83c0 9.42 0.06 23.12 0.1 40.31l-0.18-0.17 163.55-0.09-0.26 0.26v-54.9l0.26 0.25-117-0.12-34.17-0.07h-9.16-2.38z" fill="#263238" style="transform-origin:353.72px 246.655px"/>
<rect class="animable" x="338.83" y="228.99" width="32.45" height="4.42" fill="#ed543d" style="transform-origin:355.055px 231.2px"/>
<rect class="animable" x="338.83" y="239.89" width="85.59" height="2.83" fill="#e0e0e0" style="transform-origin:381.625px 241.305px"/>
<rect class="animable" x="338.83" y="245.55" width="85.59" height="2.83" fill="#e0e0e0" style="transform-origin:381.625px 246.965px"/>
<path class="animable" d="m401.67 262.27h-1.62v1.58h-1.2v-1.58h-1.62v-1.13h1.62v-1.59h1.2v1.59h1.62z" fill="#ed543d" style="transform-origin:399.45px 261.7px"/>
<path class="animable" d="M410.38,258.44V265h-1.51v-5.31h-1.3v-1.21Z" fill="#ed543d" style="transform-origin:408.975px 261.72px"/>
<path class="animable" d="m416.9 261.76h2.64v1.16h-2.64z" fill="#ed543d" style="transform-origin:418.22px 262.34px"/>
<path class="animable" d="m424.42 269.23s0-0.1 0-0.29 0-0.48 0-0.81c0-0.74 0-1.77-0.05-3.07 0-2.67-0.06-6.47-0.1-11.13l0.19 0.19-32.33 0.07 0.26-0.26v7.87 7.41l-0.25-0.24 23.15 0.11 6.73 0.07h1.81 0.64a4 4 0 0 1-0.58 0h-1.76l-6.67 0.07-23.32 0.12h-0.25v-0.25-7.41-7.68c-0.06 0 0.49-0.5 0.26-0.27l32.33 0.07h0.19v0.2c0 4.71-0.07 8.55-0.1 11.25 0 1.28 0 2.29-0.05 3v0.77c-0.08 0.13-0.09 0.22-0.1 0.21z" fill="#263238" style="transform-origin:408.278px 261.505px"/>
<path class="animable" d="M345.36,264.35a3.49,3.49,0,0,1-2.05.86v1.33h-1.19v-1.3a6.1,6.1,0,0,1-1.67-.31,3.92,3.92,0,0,1-1.28-.64l.65-1.44a4.33,4.33,0,0,0,1.05.55,4.54,4.54,0,0,0,1.25.29v-2a10,10,0,0,1-1.42-.45,2.55,2.55,0,0,1-1-.73,2,2,0,0,1-.39-1.28,2.29,2.29,0,0,1,.72-1.69,3.46,3.46,0,0,1,2.07-.86v-1.31h1.19v1.29a5.23,5.23,0,0,1,2.4.72l-.59,1.46a4.68,4.68,0,0,0-1.81-.61v2a9.06,9.06,0,0,1,1.4.43,2.59,2.59,0,0,1,1,.73,1.94,1.94,0,0,1,.39,1.26A2.26,2.26,0,0,1,345.36,264.35Zm-3.89-4.71a1.79,1.79,0,0,0,.65.33v-1.69a1.37,1.37,0,0,0-.67.34.76.76,0,0,0-.21.54A.59.59,0,0,0,341.47,259.64Zm2.47,3.69a.67.67,0,0,0,.22-.51.59.59,0,0,0-.22-.48,1.85,1.85,0,0,0-.63-.33v1.63A1.17,1.17,0,0,0,343.94,263.33Z" fill="#e0e0e0" style="transform-origin:342.626px 260.955px"/>
<path class="animable" d="M353.51,264.35a3.46,3.46,0,0,1-2.05.86v1.33h-1.19v-1.3a6.17,6.17,0,0,1-1.67-.31,3.92,3.92,0,0,1-1.28-.64l.65-1.44a4.23,4.23,0,0,0,1.06.55,4.48,4.48,0,0,0,1.24.29v-2a10.45,10.45,0,0,1-1.42-.45,2.52,2.52,0,0,1-1-.73,2,2,0,0,1-.4-1.28,2.29,2.29,0,0,1,.72-1.69,3.46,3.46,0,0,1,2.07-.86v-1.31h1.19v1.29a5.31,5.31,0,0,1,2.41.72l-.6,1.46a4.68,4.68,0,0,0-1.81-.61v2a9.06,9.06,0,0,1,1.4.43,2.52,2.52,0,0,1,1,.73,1.94,1.94,0,0,1,.39,1.26A2.26,2.26,0,0,1,353.51,264.35Zm-3.89-4.71a1.87,1.87,0,0,0,.65.33v-1.69a1.29,1.29,0,0,0-.66.34.77.77,0,0,0-.22.54A.59.59,0,0,0,349.62,259.64Zm2.48,3.69a.69.69,0,0,0,.21-.51.59.59,0,0,0-.22-.48,1.76,1.76,0,0,0-.63-.33v1.63A1.2,1.2,0,0,0,352.1,263.33Z" fill="#e0e0e0" style="transform-origin:350.771px 260.955px"/>
<path class="animable" d="M328,274.56c-.15,0-.26-12.34-.26-27.55s.11-27.54.26-27.54.26,12.33.26,27.54S328.16,274.56,328,274.56Z" fill="#263238" style="transform-origin:328px 247.015px"/>
<path class="animable" d="M288.92,178.35,291,206a1.67,1.67,0,0,0,1.64,1.54l11.24.09a1.67,1.67,0,0,0,1.67-1.52l2.28-27.45Z" fill="#ed543d" style="transform-origin:298.375px 192.99px"/>
<g class="animable" opacity=".3" style="transform-origin:298.275px 194.709px">
<path class="animable" d="M306.85,190.45a159.21,159.21,0,0,1-17.15-.23l.54,8.32s10,1.71,16-.38Z" style="transform-origin:298.275px 194.709px"/>
</g>
<g class="animable" opacity=".3" style="transform-origin:298.385px 180.599px">
<path class="animable" d="m307.7 180.17a26.77 26.77 0 0 1-12.25 1.83c-5.44-0.34-6.4-1.66-6.4-1.66l-0.07-1.24h18.81z" style="transform-origin:298.385px 180.599px"/>
</g>
<path class="animable" d="M308.62,177.17l.44,1.91s-2.15,1.78-10.94,1.66c-7.87-.1-9.78-1.56-9.78-1.56l-.61-.52.54-1.8Z" fill="#e0e0e0" style="transform-origin:298.395px 178.803px"/>
<path class="animable" d="M308.62,177.17h-1.57l-4.32,0-14.47-.2.06,0-.53,1.8,0-.07.64.54a4.29,4.29,0,0,0,.78.37l.41.14.42.13c.55.15,1.11.27,1.67.37a29.26,29.26,0,0,0,3.28.39,55.65,55.65,0,0,0,6,.11,30.85,30.85,0,0,0,4.84-.5,15,15,0,0,0,1.87-.47,5.38,5.38,0,0,0,1.38-.63v0l-.3-1.41-.08-.37,0-.13a.64.64,0,0,1,0,.12l.08.37c.08.32.2.8.34,1.41v0h0a5.46,5.46,0,0,1-1.39.65,14.84,14.84,0,0,1-1.87.49,30.94,30.94,0,0,1-4.85.52,55.73,55.73,0,0,1-6-.09,29.71,29.71,0,0,1-3.29-.39,17.1,17.1,0,0,1-1.69-.38c-.14,0-.28-.08-.42-.12s-.28-.09-.41-.15a3.73,3.73,0,0,1-.81-.38l-.65-.54,0,0v0c.19-.62.37-1.23.54-1.8v0h0l14.5.25,4.3.08,1.16,0h.39Z" fill="#263238" style="transform-origin:298.43px 178.896px"/>
<path class="animable" d="M288.25,177c0,.92,4.52,1.58,10.18,1.73,3.86.1,9.5-.64,10.19-1.61.54-.74-4.55-1.69-10.17-1.73S288.26,176.1,288.25,177Z" fill="#fff" style="transform-origin:298.455px 177.064px"/>
<path class="animable" d="M288.25,177a.45.45,0,0,1,0-.11.59.59,0,0,1,.2-.25,3.71,3.71,0,0,1,1.13-.49,24.87,24.87,0,0,1,4.47-.67,57.92,57.92,0,0,1,6.7-.08c1.27.07,2.59.17,4,.36.68.09,1.37.2,2.07.36a8.47,8.47,0,0,1,1,.28,3.66,3.66,0,0,1,.51.21l.12.07.12.08a.52.52,0,0,1,.1.11.25.25,0,0,1,0,.17.3.3,0,0,1-.07.15l-.11.11a1.88,1.88,0,0,1-.23.16,3.16,3.16,0,0,1-.5.22,8.06,8.06,0,0,1-1,.31c-.7.17-1.39.29-2.07.4-1.36.19-2.68.31-3.94.36a35.66,35.66,0,0,1-3.59,0c-1.12,0-2.17-.12-3.12-.21a26.51,26.51,0,0,1-4.46-.69,3.38,3.38,0,0,1-1.13-.49.53.53,0,0,1-.2-.25.42.42,0,0,1,0-.1s0,0,0,.1a.5.5,0,0,0,.2.23,3.66,3.66,0,0,0,1.13.46,27,27,0,0,0,4.46.66c.95.08,2,.14,3.11.18a35.49,35.49,0,0,0,3.58,0c1.26-.06,2.58-.17,3.94-.37.67-.1,1.36-.23,2.05-.39a9,9,0,0,0,1-.31,4.31,4.31,0,0,0,.49-.22,1.59,1.59,0,0,0,.21-.15.35.35,0,0,0,.14-.17.22.22,0,0,0-.1-.18,795787496703.13,795787496703.13,0,0,1-.22-.14,4.19,4.19,0,0,0-.49-.2,9.17,9.17,0,0,0-1-.27c-.69-.16-1.38-.27-2.06-.36-1.35-.19-2.67-.3-3.93-.36a58.56,58.56,0,0,0-6.7.05,24.59,24.59,0,0,0-4.46.63,3.72,3.72,0,0,0-1.12.46.7.7,0,0,0-.21.23C288.26,177,288.26,177,288.25,177Z" fill="#263238" style="transform-origin:298.466px 177.067px"/>
<path class="animable" d="M304.24,175.39l.24,1.07s-1.21,1.1-6.15.94-5.49-.88-5.49-.88l-.14-.17.1-1.14Z" fill="#e0e0e0" style="transform-origin:298.59px 176.313px"/>
<path class="animable" d="M304.24,175.39h-.89l-2.43,0-8.13-.11.07-.05c0,.36-.07.74-.1,1.13l0,0,.11.12a.24.24,0,0,0,.1.1,3.14,3.14,0,0,0,.9.33c.31.08.63.14.94.19.62.09,1.24.15,1.84.2a32.27,32.27,0,0,0,3.33.1,16.08,16.08,0,0,0,2.71-.26,6.8,6.8,0,0,0,1-.28,2.56,2.56,0,0,0,.76-.37v0l-.17-.8,0-.2a.45.45,0,0,1,0-.08.31.31,0,0,1,0,.07l.05.2c.05.19.11.45.2.8h0a3.08,3.08,0,0,1-.77.4,8.14,8.14,0,0,1-1,.29,16.09,16.09,0,0,1-2.72.29c-1,0-2.15,0-3.35-.09-.6-.05-1.22-.11-1.85-.2-.31,0-.63-.11-.95-.19a3.17,3.17,0,0,1-.94-.35.49.49,0,0,1-.13-.12l-.1-.12,0,0v0l.1-1.13v-.06h.06l8.16.15,2.41.06.65,0h.22Z" fill="#263238" style="transform-origin:298.625px 176.33px"/>
<path class="animable" d="m292.79 175.3c0 0.52 2.56 1 5.72 1s5.73-0.39 5.73-0.91-2.56-1-5.72-1-5.73 0.39-5.73 0.91z" fill="#fff" style="transform-origin:298.515px 175.345px"/>
<path class="animable" d="M292.79,175.3s0-.1.12-.2a1.79,1.79,0,0,1,.63-.28,13.83,13.83,0,0,1,2.52-.39,32.77,32.77,0,0,1,3.78-.05c.71,0,1.45.08,2.22.18.38.06.77.12,1.17.21a4.3,4.3,0,0,1,.58.18,1.47,1.47,0,0,1,.28.14.37.37,0,0,1,.21.28.38.38,0,0,1-.21.29,1.17,1.17,0,0,1-.28.13,3.53,3.53,0,0,1-.59.17c-.39.09-.78.15-1.17.2-.77.09-1.52.13-2.23.15a29.66,29.66,0,0,1-3.77-.1,13.27,13.27,0,0,1-2.51-.41,2.15,2.15,0,0,1-.64-.29c-.13-.1-.12-.21-.11-.21a.26.26,0,0,0,.13.19,2.16,2.16,0,0,0,.63.26,14.8,14.8,0,0,0,2.51.38,34.34,34.34,0,0,0,3.76.07c.71,0,1.45-.07,2.22-.16a11.53,11.53,0,0,0,1.15-.2,3.7,3.7,0,0,0,.57-.16l.27-.13c.08,0,.15-.11.15-.18s-.07-.13-.15-.18a2.1,2.1,0,0,0-.26-.13c-.19-.07-.38-.12-.57-.17-.39-.09-.77-.15-1.16-.21-.76-.1-1.5-.15-2.21-.19a35.34,35.34,0,0,0-3.76,0,14.34,14.34,0,0,0-2.51.34,2.25,2.25,0,0,0-.64.26A.27.27,0,0,0,292.79,175.3Z" fill="#263238" style="transform-origin:298.542px 175.339px"/>
<path class="animable" d="m297.58 175.07-0.27-12.36 1.56-0.07 0.26 12.44c-0.61-0.02-0.99 0.19-1.55-0.01z" fill="#fff" style="transform-origin:298.22px 168.899px"/>
<path class="animable" d="M297.58,175.07a1.67,1.67,0,0,0,.39.07,3,3,0,0,0,.49,0,3.43,3.43,0,0,1,.68-.05l0,0c-.07-2.25-.19-7-.3-12.39v0l.06.06-1.56.06.06-.06c.07,3.47.13,6.56.17,8.78,0,1.1,0,2,0,2.62v1a.28.28,0,0,0,0-.06v-.18c0-.16,0-.4,0-.7,0-.62,0-1.51-.07-2.61-.06-2.23-.14-5.32-.22-8.81v-.06h.06l1.55-.07h.07v.1c.12,5.44.2,10.15.23,12.4v0h0a4.55,4.55,0,0,0-.67,0,2.89,2.89,0,0,1-.49,0,1.19,1.19,0,0,1-.29-.06Z" fill="#263238" style="transform-origin:298.235px 168.925px"/>
<polygon class="animable" points="298.39 162.72 298.65 175.11 298.07 175.09 297.72 162.73" fill="#455a64" style="transform-origin:298.185px 168.915px"/>
<path class="animable" d="M297,174.94s.69.09,1.53.1,1.54-.11,1.54-.07a1.68,1.68,0,0,1-.44.11,6.62,6.62,0,0,1-1.1.08,6.14,6.14,0,0,1-1.09-.1A1.15,1.15,0,0,1,297,174.94Z" fill="#263238" style="transform-origin:298.535px 175.05px"/>
<path class="animable" d="M308.1,179.57a3,3,0,0,1-.3-.92,4.8,4.8,0,0,1-.18-.94,3,3,0,0,1,.3.92A4.8,4.8,0,0,1,308.1,179.57Z" fill="#263238" style="transform-origin:307.86px 178.64px"/>
<path class="animable" d="m306.47 180.07a4.2 4.2 0 0 1-0.31-0.94 4 4 0 0 1-0.19-1 4.2 4.2 0 0 1 0.31 0.94 3.48 3.48 0 0 1 0.19 1z" fill="#263238" style="transform-origin:306.22px 179.1px"/>
<path class="animable" d="m304.71 180.46a5.08 5.08 0 0 1-0.27-1 4.92 4.92 0 0 1-0.15-1 3.84 3.84 0 0 1 0.27 1 3.68 3.68 0 0 1 0.15 1z" fill="#263238" style="transform-origin:304.5px 179.46px"/>
<path class="animable" d="m302.64 180.68a8.58 8.58 0 0 1-0.3-2 5.14 5.14 0 0 1 0.21 1 4.81 4.81 0 0 1 0.09 1z" fill="#263238" style="transform-origin:302.49px 179.68px"/>
<path class="animable" d="m300.46 180.78a4.75 4.75 0 0 1 0-1 4.44 4.44 0 0 1 0.1-1 4.75 4.75 0 0 1 0 1 4.54 4.54 0 0 1-0.1 1z" fill="#263238" style="transform-origin:300.51px 179.78px"/>
<path class="animable" d="m298.68 180.73a3.36 3.36 0 0 1 0-1 4 4 0 0 1 0.12-1 3.34 3.34 0 0 1 0 1 4.11 4.11 0 0 1-0.12 1z" fill="#263238" style="transform-origin:298.74px 179.73px"/>
<path class="animable" d="M296.8,180.66a3,3,0,0,1,.06-1,3.27,3.27,0,0,1,.23-.95,4.39,4.39,0,0,1-.11,1A5,5,0,0,1,296.8,180.66Z" fill="#263238" style="transform-origin:296.936px 179.685px"/>
<path class="animable" d="m294.57 180.51a4.31 4.31 0 0 1 0.21-1 4.38 4.38 0 0 1 0.33-1 3.75 3.75 0 0 1-0.21 1 4.38 4.38 0 0 1-0.33 1z" fill="#263238" style="transform-origin:294.84px 179.51px"/>
<path class="animable" d="m292.54 180.36a4.77 4.77 0 0 1 0.2-1 3.77 3.77 0 0 1 0.32-1 4.63 4.63 0 0 1-0.2 1 3.76 3.76 0 0 1-0.32 1z" fill="#263238" style="transform-origin:292.8px 179.36px"/>
<path class="animable" d="M290.15,179.9a4.06,4.06,0,0,1,.25-.94,4.14,4.14,0,0,1,.38-.9,8.11,8.11,0,0,1-.63,1.84Z" fill="#263238" style="transform-origin:290.465px 178.98px"/>
<path class="animable" d="M288.36,179.23a3.26,3.26,0,0,1,.23-.84,2.7,2.7,0,0,1,.34-.8,3.16,3.16,0,0,1-.23.84A2.7,2.7,0,0,1,288.36,179.23Z" fill="#263238" style="transform-origin:288.645px 178.41px"/>
<path class="animable" d="M302.66,243.68a8.9,8.9,0,0,0,1.72-4.43,7.23,7.23,0,0,0-.68-4.2c-.05-.09-.1-.19-.2-.22a.4.4,0,0,0-.3,0,5.08,5.08,0,0,0-.54,8.8" fill="#455a64" style="transform-origin:302.409px 239.24px"/>
<path class="animable" d="M305.77,240a6.73,6.73,0,0,0,2.9-2.13,5.38,5.38,0,0,0,1.27-3,.29.29,0,0,0,0-.22.31.31,0,0,0-.21-.09,3.84,3.84,0,0,0-3.92,5.39" fill="#455a64" style="transform-origin:307.717px 237.269px"/>
<path class="animable" d="M305.24,243.57a2.08,2.08,0,0,0-.69-2,3.11,3.11,0,0,0-2-.71,3.3,3.3,0,0,0-1.84.49,2.46,2.46,0,0,0-1.1,1.54,2.42,2.42,0,0,0,.77,2.2,3.29,3.29,0,0,0,2.23.82,2.71,2.71,0,0,0,1.87-.69,2.35,2.35,0,0,0,.8-1.66" fill="#ed543d" style="transform-origin:302.429px 243.384px"/>
<path class="animable" d="M312.29,245.58c2.77.49,5.52-2.58,6.18-4.57a.69.69,0,0,0,0-.64.66.66,0,0,0-.66-.15,6.43,6.43,0,0,0-3.63,1.77,6.59,6.59,0,0,0-1.87,3.59" fill="#455a64" style="transform-origin:315.419px 242.91px"/>
<path class="animable" d="M315.41,244.06a2.09,2.09,0,0,0-.69-2,3.06,3.06,0,0,0-2-.71,3.34,3.34,0,0,0-1.85.49,2.31,2.31,0,0,0-.33,3.74,3.23,3.23,0,0,0,2.23.81,2.68,2.68,0,0,0,1.87-.68,2.33,2.33,0,0,0,.81-1.67" fill="#ed543d" style="transform-origin:312.593px 243.87px"/>
<path class="animable" d="M295.16,239.74a2.08,2.08,0,0,0-.69-2,3.17,3.17,0,0,0-2-.71,3.4,3.4,0,0,0-1.84.5,2.29,2.29,0,0,0-.34,3.73,3.27,3.27,0,0,0,2.24.82,2.71,2.71,0,0,0,1.87-.69,2.35,2.35,0,0,0,.8-1.66" fill="#ed543d" style="transform-origin:292.342px 239.555px"/>
<path class="animable" d="M301.12,244.66a8.92,8.92,0,0,0-1.87-4.37,7.14,7.14,0,0,0-3.42-2.53.42.42,0,0,0-.29,0,.36.36,0,0,0-.18.25,5.08,5.08,0,0,0,5.76,6.67" fill="#455a64" style="transform-origin:298.097px 241.254px"/>
<path class="animable" d="M291,242.19a13.72,13.72,0,0,1-1.46-2,4.65,4.65,0,0,1-.62-2.4.47.47,0,0,1,.13-.34.45.45,0,0,1,.36,0,7.67,7.67,0,0,1,5.94,6.67l.08.42a5.92,5.92,0,0,1-4.38.65,9.34,9.34,0,0,1-3.38-1.33,4.84,4.84,0,0,1-2.05-2.92A6.55,6.55,0,0,1,291,242.19Z" fill="#455a64" style="transform-origin:290.525px 241.383px"/>
<path class="animable" d="m308.27 239.75a9.9 9.9 0 0 1 4.9-2.49 7 7 0 0 1-6.16 7.79l-0.11-0.2a5.1 5.1 0 0 1 1.37-5.1z" fill="#455a64" style="transform-origin:309.959px 241.155px"/>
<path class="animable" d="M317.84,243.6a30.4,30.4,0,0,1-5.55,11.22c-6.13,7.55-20,5.45-23.73-.46-1.45-2.26-5.27-10.68-5.27-10.68Z" fill="#fff" style="transform-origin:300.565px 251.641px"/>
<path class="animable" d="M317.84,243.6h-.69l-2,0-7.28,0-24.62.11.09-.15c1.12,2.45,2.31,5,3.58,7.55.33.66.67,1.31,1,2a10,10,0,0,0,1.16,1.81,10.22,10.22,0,0,0,3.28,2.61,17.77,17.77,0,0,0,7.68,2,17.25,17.25,0,0,0,7.1-1.17,12.89,12.89,0,0,0,5.06-3.65,30,30,0,0,0,4.52-7.94c.39-1,.65-1.82.82-2.36l.24-.84a21.62,21.62,0,0,1-1,3.23,30,30,0,0,1-4.48,8,13,13,0,0,1-5.12,3.72,17.24,17.24,0,0,1-7.17,1.2,17.78,17.78,0,0,1-7.77-2,10.43,10.43,0,0,1-3.34-2.66,11.13,11.13,0,0,1-1.19-1.84c-.34-.65-.68-1.31-1-2-1.28-2.56-2.46-5.1-3.59-7.55l-.06-.15h34.71Z" fill="#263238" style="transform-origin:300.45px 251.629px"/>
<path class="animable" d="M315.57,249.24c0,.06-6.63.1-14.81.1s-14.82,0-14.82-.1,6.63-.1,14.82-.1S315.57,249.18,315.57,249.24Z" fill="#ed543d" style="transform-origin:300.755px 249.24px"/>
<path class="animable" d="M316.17,248.39c0,.06-6.87.1-15.34.1s-15.34,0-15.34-.1,6.86-.11,15.34-.11S316.17,248.33,316.17,248.39Z" fill="#ed543d" style="transform-origin:300.83px 248.385px"/>
</g>
<g class="animable" style="transform-origin:196.637px 157.935px">
<path class="animable" d="m159.94 109.25h73.4a5.25 5.25 0 0 1 5.25 5.25v73.4a5.25 5.25 0 0 1-5.25 5.25h-54.67c-5 4.24-14.55 12.78-14.55 12.78l-0.71-12.78h-3.47a5.25 5.25 0 0 1-5.24-5.25v-73.4a5.25 5.25 0 0 1 5.24-5.25z" fill="#fff" style="transform-origin:196.645px 157.59px"/>
<path class="animable" d="m159.94 109.25a7.35 7.35 0 0 0-1.68 0.32 5.3 5.3 0 0 0-3.28 3.49 14.43 14.43 0 0 0-0.19 3.63v4.42 10.94c0 8.19 0 18.12 0.06 29.48v18.08 4.83 2.45a8.34 8.34 0 0 0 0.2 2.41 5 5 0 0 0 3.23 3.36 6.88 6.88 0 0 0 2.46 0.26h2.82v0.21c0.23 4 0.47 8.35 0.72 12.79l-0.4-0.17 14.63-12.75 0.07-0.06h46.3 8.82a5 5 0 0 0 4.47-3.74 8 8 0 0 0 0.16-2.09v-17.11-32.24q0-7.71 0-15v-7.19a16.34 16.34 0 0 0-0.05-1.73 4.92 4.92 0 0 0-0.5-1.59 5 5 0 0 0-2.33-2.26 5.07 5.07 0 0 0-1.57-0.46h-1.66-9.82-12.2l-36.8-0.08h-10-2.6-0.89 0.89 2.6 10l36.8-0.08h12.2 9.82 1.71a5.52 5.52 0 0 1 4.24 2.94 5.28 5.28 0 0 1 0.54 1.73 12.08 12.08 0 0 1 0.06 1.79v7.19q0 7.3 0 15v32.24q0 8.38 0 17a8.43 8.43 0 0 1-0.18 2.22 5.36 5.36 0 0 1-1 2 5.45 5.45 0 0 1-3.93 2.1h-8.86-46.13l0.17-0.06c-5 4.41-10 8.72-14.56 12.77l-0.37 0.33v-0.5c-0.24-4.44-0.48-8.78-0.7-12.78l0.23 0.22h-2.6a7.52 7.52 0 0 1-2.61-0.29 5.52 5.52 0 0 1-3.51-3.67 8.75 8.75 0 0 1-0.21-2.53v-7.28-18.08c0-11.36 0-21.29 0.05-29.48v-10.94-4.42a14.3 14.3 0 0 1 0.23-3.67 5.27 5.27 0 0 1 3.4-3.52 5.4 5.4 0 0 1 1.27-0.24z" fill="#263238" style="transform-origin:196.637px 157.935px"/>
<polygon class="animable" points="214.51 149.94 211.85 162.99 220.51 162.79" fill="#ed543d" style="transform-origin:216.18px 156.465px"/>
<g class="animable" opacity=".3" style="transform-origin:216.18px 156.465px">
<polygon class="animable" points="214.51 149.94 211.85 162.99 220.51 162.79" style="transform-origin:216.18px 156.465px"/>
</g>
<polygon class="animable" points="177.37 150.36 180.03 163.41 171.36 163.21" fill="#ed543d" style="transform-origin:175.695px 156.885px"/>
<g class="animable" opacity=".3" style="transform-origin:175.695px 156.885px">
<polygon class="animable" points="177.37 150.36 180.03 163.41 171.36 163.21" style="transform-origin:175.695px 156.885px"/>
</g>
<path class="animable" d="m199.56 152.78a1.09 1.09 0 0 1-1.09-1.05l-1.27-30.57a1.11 1.11 0 0 1 1.1-1.14h1.53a1.09 1.09 0 0 1 1.09 1.1l-0.26 30.57a1.1 1.1 0 0 1-1.1 1.09z" fill="#844031" style="transform-origin:199.06px 136.4px"/>
<rect class="animable" x="197.32" y="123.92" width="3.61" height="2.65" fill="#ed543d" style="transform-origin:199.125px 125.245px"/>
<path class="animable" d="M202,152.9h0a1.1,1.1,0,0,1-.67-1.37l9.31-29.14a1.09,1.09,0,0,1,1.42-.7l1.43.52a1.11,1.11,0,0,1,.65,1.42l-10.74,28.62A1.11,1.11,0,0,1,202,152.9Z" fill="#844031" style="transform-origin:207.742px 137.292px"/>
<rect class="animable" x="209.75" y="125.08" width="2.65" height="3.61" fill="#ed543d" style="transform-origin:211.075px 126.885px;transform:rotate(-69.92deg)"/>
<path class="animable" d="m212.44 145.13a7.26 7.26 0 0 0-5-3.19 10.21 10.21 0 0 0-5.8 1c-1.41 0.67-2.87 1.6-4.38 1.29a8.71 8.71 0 0 1-2.87-1.63 10.18 10.18 0 0 0-7.79-1.58 11.1 11.1 0 0 0-6.75 4.66 7.47 7.47 0 0 0-1.32 6.14l34.52-0.12a7.46 7.46 0 0 0-0.61-6.57z" fill="#e0e0e0" style="transform-origin:195.945px 146.318px"/>
<path class="animable" d="M211.52,151a12.36,12.36,0,0,0,0-1.7,6.29,6.29,0,0,0-2-4,5,5,0,0,0-2.81-1.21,8,8,0,0,0-3.54.5c-1.2.42-2.34,1.2-3.7,1.75a5.48,5.48,0,0,1-2.22.41,5.86,5.86,0,0,1-2.24-.62c-1.4-.67-2.57-1.58-3.81-2.22a7.32,7.32,0,0,0-3.83-.85,7.62,7.62,0,0,0-3.41,1,8.08,8.08,0,0,0-2.33,2.1,10.19,10.19,0,0,0-1.85,4.18c-.2,1.08-.19,1.7-.24,1.69a1.38,1.38,0,0,1,0-.44,8.42,8.42,0,0,1,.08-1.28,9.89,9.89,0,0,1,1.75-4.37,8.45,8.45,0,0,1,2.41-2.25,8,8,0,0,1,3.61-1.14,7.75,7.75,0,0,1,4.08.88c1.3.66,2.48,1.57,3.8,2.2a5.49,5.49,0,0,0,2,.57,4.86,4.86,0,0,0,2-.37c1.28-.5,2.45-1.29,3.72-1.72a8.37,8.37,0,0,1,3.75-.48,5.33,5.33,0,0,1,3,1.37,6.34,6.34,0,0,1,1.91,4.28,6.19,6.19,0,0,1-.08,1.28C211.58,150.82,211.54,151,211.52,151Z" fill="#263238" style="transform-origin:195.589px 147.283px"/>
<path class="animable" d="M209.88,151.37a14,14,0,0,0,0-1.48,4.64,4.64,0,0,0-1.9-3.35,3.55,3.55,0,0,0-2.55-.6,7.89,7.89,0,0,0-2.88,1.24,12.45,12.45,0,0,1-3.26,1.64,6.28,6.28,0,0,1-3.93-.37c-2.51-1-4.5-2.66-6.71-3.1A5.79,5.79,0,0,0,183.3,147a7.49,7.49,0,0,0-1.87,3.5c-.22.93-.21,1.48-.26,1.47s0-.13,0-.39a7,7,0,0,1,.1-1.12,7.38,7.38,0,0,1,1.8-3.72,6.39,6.39,0,0,1,2.4-1.62,5.87,5.87,0,0,1,3.32-.28c2.37.46,4.4,2.15,6.8,3.09a5.9,5.9,0,0,0,3.61.36,12.45,12.45,0,0,0,3.14-1.56,8,8,0,0,1,3.07-1.26,3.91,3.91,0,0,1,2.82.73,4.4,4.4,0,0,1,1.49,1.88,4.93,4.93,0,0,1,.4,1.75A4.78,4.78,0,0,1,210,151,1.16,1.16,0,0,1,209.88,151.37Z" fill="#263238" style="transform-origin:195.634px 148.344px"/>
<path class="animable" d="M207.74,151.38a2.79,2.79,0,0,0-.22-1.13A2.19,2.19,0,0,0,205,149a6.07,6.07,0,0,0-2,.86,12.51,12.51,0,0,1-2.34,1.22,8.28,8.28,0,0,1-5.93-.79,31.8,31.8,0,0,0-5.4-2.32,5.49,5.49,0,0,0-4.5.56,4.64,4.64,0,0,0-1.83,2.5c-.21.73-.16,1.17-.22,1.17a1.16,1.16,0,0,1-.05-.31,3.59,3.59,0,0,1,.07-.91,4.66,4.66,0,0,1,1.82-2.75,5.8,5.8,0,0,1,4.82-.73,30.11,30.11,0,0,1,5.5,2.32,8,8,0,0,0,5.57.8,12.65,12.65,0,0,0,2.27-1.13,6.15,6.15,0,0,1,2.15-.85,2.63,2.63,0,0,1,1.91.35,2.54,2.54,0,0,1,.91,1.14,1.9,1.9,0,0,1,.12.91A.55.55,0,0,1,207.74,151.38Z" fill="#263238" style="transform-origin:195.304px 149.734px"/>
<path class="animable" d="M177.31,150.25c0,.89,6.34,33.46,6.34,33.46l24.87-.41,6-33.36Z" fill="#ed543d" style="transform-origin:195.915px 166.825px"/>
<path class="animable" d="M177.31,150.25a5.37,5.37,0,0,1,.69,0l2.07-.05,7.78-.13,26.66-.35h.42l-.19.38-3.85,7.65c-1.1,2.18-2.18,4.33-3.23,6.4l-.07.15h-.16l-23.18-.07h-.12l0-.1c-2.1-4.26-3.81-7.73-5-10.18l-1.33-2.73-.34-.71a1,1,0,0,1-.09-.22l.14.25.39.73,1.44,2.74c1.23,2.4,3,5.78,5.14,9.94l-.17-.11,23.18-.06-.23.14,3.23-6.41,3.85-7.64.23.37-26.44.08h-10Z" fill="#263238" style="transform-origin:196.12px 157.01px"/>
<g class="animable" opacity=".3" style="transform-origin:199.415px 158.235px">
<polygon class="animable" points="184.91 164 185.54 165.35 208.09 165.35 213.92 151.12 207.43 164" style="transform-origin:199.415px 158.235px"/>
</g>
<path class="animable" d="M201,177.71a19.2,19.2,0,0,1-4.41.26,19.13,19.13,0,0,1-4.41-.26,19.13,19.13,0,0,1,4.41-.26A19.2,19.2,0,0,1,201,177.71Z" fill="#fff" style="transform-origin:196.59px 177.71px"/>
<path class="animable" d="M199.42,172.52s-.06-.25-.19-.68a2.87,2.87,0,0,0-1.06-1.46,2.71,2.71,0,0,0-2.53-.34,2.66,2.66,0,1,0,2.53,4.62,2.83,2.83,0,0,0,1.06-1.46c.13-.42.14-.68.19-.68a1.39,1.39,0,0,1,0,.73,2.85,2.85,0,0,1-1,1.71,3.05,3.05,0,0,1-2.92.49,3.11,3.11,0,0,1,0-5.86,3,3,0,0,1,2.92.5,2.8,2.8,0,0,1,1,1.7A1.39,1.39,0,0,1,199.42,172.52Z" fill="#fff" style="transform-origin:196.451px 172.518px"/>
<path class="animable" d="M185,138.71a1.09,1.09,0,0,0,.61-.65,1.48,1.48,0,0,0,0-1,5.32,5.32,0,0,0-.84-1.21,4.3,4.3,0,0,1,.57-6c.59-.55,1.27-1.09,1.35-1.83a2.74,2.74,0,0,0-1-2,7.71,7.71,0,0,1-1.45-1.91,5,5,0,0,1-.14-4,4.65,4.65,0,0,1,1.7-2.11,1.94,1.94,0,0,1,.89-.43s-.29.19-.77.59a5,5,0,0,0-1.48,2.08,4.67,4.67,0,0,0,.23,3.67,8,8,0,0,0,1.4,1.78,5.92,5.92,0,0,1,.78,1,2.2,2.2,0,0,1,.32,1.37,2.41,2.41,0,0,1-.61,1.27,12.26,12.26,0,0,1-.92.87,4,4,0,0,0-.62,5.37,5.27,5.27,0,0,1,.82,1.33,1.65,1.65,0,0,1,0,1.21,1,1,0,0,1-.54.54C185.08,138.74,185,138.72,185,138.71Z" fill="#263238" style="transform-origin:185.465px 128.145px"/>
<path class="animable" d="M188.83,138.71a1.09,1.09,0,0,0,.61-.65,1.48,1.48,0,0,0,0-1,5.32,5.32,0,0,0-.84-1.21,4.3,4.3,0,0,1,.57-6c.59-.55,1.27-1.09,1.35-1.83a2.74,2.74,0,0,0-1-2,7.44,7.44,0,0,1-1.44-1.91,4.91,4.91,0,0,1-.15-4,4.78,4.78,0,0,1,1.7-2.11,1.94,1.94,0,0,1,.9-.43s-.3.19-.78.59a4.94,4.94,0,0,0-1.47,2.08,4.63,4.63,0,0,0,.23,3.67,7.64,7.64,0,0,0,1.39,1.78,5.92,5.92,0,0,1,.78,1,2.2,2.2,0,0,1,.32,1.37,2.33,2.33,0,0,1-.61,1.27c-.3.33-.62.6-.91.87a3.85,3.85,0,0,0-1.22,1.81,3.92,3.92,0,0,0,.6,3.56,5.22,5.22,0,0,1,.81,1.33,1.6,1.6,0,0,1,0,1.21,1,1,0,0,1-.54.54C188.92,138.74,188.83,138.72,188.83,138.71Z" fill="#263238" style="transform-origin:189.293px 128.145px"/>
</g>
<g class="animable animator-active" style="transform-origin:157.655px 313.851px">
<polygon class="animable" points="74.04 436.84 67.08 482.1 75.03 482.1 88.46 436.84" fill="#263238" style="transform-origin:77.77px 459.47px"/>
<polygon class="animable" points="246.82 436.84 253.78 482.1 245.82 482.1 232.4 436.84" fill="#263238" style="transform-origin:243.09px 459.47px"/>
<path class="animable" d="m37.87 316.79c-0.56 20.42-5.86 110.5 12.61 127.65h22.94c6 0 5.66-2.83 5.43-8.8l-4.36-116.88a10.41 10.41 0 0 0-2.27-6.17c-3-3.72-9.07-9.47-17.38-8.91a24.61 24.61 0 0 0-12.55 4.16 11 11 0 0 0-4.42 8.95z" fill="#455a64" style="transform-origin:57.8461px 374.041px"/>
<polygon class="animable" points="245.78 445.75 73.42 444.44 73.42 391.19 245.78 391.19" fill="#455a64" style="transform-origin:159.6px 418.47px"/>
<polygon class="animable" points="245.1 391.19 72.43 392.61 72.43 360.67 245.78 357.42" fill="#455a64" style="transform-origin:159.105px 375.015px"/>
<path class="animable" d="M41.13,310.8s1.28-44.34,50.08-46.63,121.21,0,121.21,0,61.3-2.3,62.72,36.31l-12.18,74H73.69Z" fill="#455a64" style="transform-origin:158.135px 318.816px"/>
<path class="animable" d="m282.39 321.5c-1.29 30.56-4.11 120.2-25.37 124.25h-15.81l4.89-130.94s7.33-12.78 19.54-12h0.37a17.87 17.87 0 0 1 16.38 18.69z" fill="#455a64" style="transform-origin:261.811px 374.263px"/>
<path class="animable" d="M273.68,304.71l-.58-.14-1.65-.45-1.2-.33-1.5-.23c-.54-.07-1.12-.18-1.74-.25l-2,0a21.53,21.53,0,0,0-9.8,2.45l-.67.33-.65.4-1.32.83a29.46,29.46,0,0,0-2.54,2,26.66,26.66,0,0,0-4.6,5.33l0-.09c-.64,13.53-1.44,30.62-2.31,49.16-1,22.57-1.73,43-2.14,57.81-.19,7.39-.33,13.37-.44,17.53,0,2.05-.09,3.66-.11,4.77,0,.53,0,.94-.05,1.24s0,.42,0,.42,0-.14,0-.42,0-.72,0-1.24c0-1.12,0-2.72,0-4.77,0-4.14.13-10.13.28-17.53.33-14.81,1-35.26,2-57.83.83-18.55,1.7-35.65,2.4-49.16h0a.13.13,0,0,1,0-.08,26.55,26.55,0,0,1,4.69-5.38,28.34,28.34,0,0,1,2.59-2.05l1.34-.84.66-.4.68-.33a21.64,21.64,0,0,1,9.94-2.4l2,.07c.62.07,1.2.19,1.75.27l1.5.25,1.2.36,1.64.51Z" fill="#263238" style="transform-origin:257.019px 374.275px"/>
<path class="animable" d="M73.69,392.47l.86,0,2.52,0,9.71,0,35.71.09c30.15.11,71.8.44,117.79-.22l1.91,0-.25.23c.17-5.46.33-10.86.49-16.17q.12-4,.24-7.92l.12-3.91c0-.64.06-1.31,0-1.92a4.05,4.05,0,0,0-.5-1.76,4.43,4.43,0,0,0-2.92-2.15,8.16,8.16,0,0,0-1.93-.11h-2l-7.82,0-15.14.1-52.35.54c-14.89.15-26.93.21-35.25.22l-9.57,0-2.49,0c-.56,0-.85,0-.85,0l.85,0,2.49,0,9.57-.07,35.25-.37,52.34-.65,15.15-.11,7.82,0h2a8.35,8.35,0,0,1,2,.12,4.9,4.9,0,0,1,3.23,2.39,4.44,4.44,0,0,1,.56,1.94c0,.69,0,1.31,0,2,0,1.29-.07,2.6-.11,3.91q-.12,3.91-.24,7.91-.24,8-.48,16.18a.27.27,0,0,1-.25.23l-1.9,0c-46,.66-87.65.28-117.8.08l-35.71-.23-9.71-.07-2.52,0Z" fill="#263238" style="transform-origin:158.46px 375.808px"/>
<g class="animable" opacity=".2" style="transform-origin:157.31px 396.729px">
<path class="animable" d="M72.43,392.61c39.56,8.58,58.4,7.93,95.18,8.56,33,.57,69.33-5.38,74.58-8.92Z" style="transform-origin:157.31px 396.729px"/>
</g>
<path class="animable" d="m73.42 444.44a3.72 3.72 0 0 1 0-0.44v-1.3-5c0-4.36 0.09-10.61 0.16-18.33 0.19-15.5 0.44-36.87 0.72-60.47 0.17-11.81 0.32-23.06 0.46-33.29a22.32 22.32 0 0 0-1-7.31 22 22 0 0 0-3.18-6.17 22.33 22.33 0 0 0-4.68-4.5 21.12 21.12 0 0 0-5.34-2.63 20 20 0 0 0-10.23-0.41 19.64 19.64 0 0 0-7.14 3.1 16.26 16.26 0 0 0-3.53 3.45c-0.68 0.91-0.95 1.45-1 1.43a2.06 2.06 0 0 1 0.2-0.39 11.62 11.62 0 0 1 0.7-1.1 15.46 15.46 0 0 1 3.49-3.56 19.5 19.5 0 0 1 7.2-3.21 20.16 20.16 0 0 1 10.4 0.34 21.57 21.57 0 0 1 5.5 2.66 23 23 0 0 1 4.8 4.57 21.13 21.13 0 0 1 4.26 13.74c-0.13 10.24-0.27 21.49-0.42 33.3-0.34 23.6-0.65 45-0.87 60.46-0.14 7.72-0.25 14-0.33 18.33 0 2.15-0.08 3.82-0.11 5v1.3a3 3 0 0 1-0.06 0.43z" fill="#263238" style="transform-origin:56.9465px 374.113px"/>
<path class="animable" d="M170.39,350.71a394.07,394.07,0,0,1,6.1-62.55c.56-3.15,1.3-6.54,3.74-8.6,2.1-1.78,5-2.17,7.74-2.39,19.65-1.6,39.68,7.17,57.52,16.67a10.5,10.5,0,0,1,5.43,11.07c-3,17.1-9,30-17.83,46.33a108.54,108.54,0,0,1-63.25,5.6" fill="#ed543d" style="transform-origin:210.457px 318.086px"/>
<path class="animable" d="m135.18 196.19c-1.24-8.81-1.16-8.52-2.26-16.95-2.12-16.36-7.28-34.91-30.63-33.57 0 0-17.59 1-23 13.56-2.88 6.78-3.64 30.24-4.61 51.34a3.55 3.55 0 0 1-0.2 1l-1.09 3.19a47.32 47.32 0 0 0-2.51 13l-1.48 29.29a3.65 3.65 0 0 0 3.45 3.83c7.87 0.38 25.85-0.62 29.31-1.87a52.74 52.74 0 0 0 31.16-30.8c0.36-1 5.45-1.43 6.41-1.8 1.58-0.61-4.31-28.54-4.55-30.22z" fill="#263238" style="transform-origin:104.697px 203.282px"/>
<path class="animable" d="M97.79,153.22l1.48-1.37L115,158.43a4.4,4.4,0,0,1,4.1,4.32l-.86,51.39c0,3.49,1,7.52-1.18,10.27L114.5,228c-5.14,6.6-17,4.21-20.89-3.19a5.33,5.33,0,0,1-.54-1.34,10,10,0,0,1-.22-1.15c-.41-4.14-.39-7.73-.39-7.73-.22-4.54-.28-6.41-.29-6.36S82.53,207,80.09,194.51c-1.21-6.18-.85-14.67-.37-23C80.39,160,88.5,153.08,97.79,153.22Z" fill="#ffbf9d" style="transform-origin:99.1856px 191.855px"/>
<path class="animable" d="m100.26 179.88a1.6 1.6 0 0 0 1.61 1.56 1.53 1.53 0 0 0 1.6-1.5 1.61 1.61 0 0 0-1.61-1.57 1.54 1.54 0 0 0-1.6 1.51z" fill="#263238" style="transform-origin:101.865px 179.905px"/>
<path class="animable" d="m84.14 180a1.6 1.6 0 0 0 1.61 1.56 1.53 1.53 0 0 0 1.6-1.5 1.61 1.61 0 0 0-1.61-1.57 1.54 1.54 0 0 0-1.6 1.51z" fill="#263238" style="transform-origin:85.745px 180.025px"/>
<path class="animable" d="M81.33,174.82c.2.21,1.39-.74,3.11-.79s3,.76,3.2.54-.12-.47-.69-.85a4.37,4.37,0,0,0-2.57-.69,4.19,4.19,0,0,0-2.47.89C81.39,174.35,81.22,174.73,81.33,174.82Z" fill="#263238" style="transform-origin:84.4989px 173.938px"/>
<path class="animable" d="M98.83,175.25c.23.18,1.31-.88,3-1.12s3.08.45,3.24.21-.17-.45-.78-.77a4.42,4.42,0,0,0-2.63-.43,4.29,4.29,0,0,0-2.36,1.15C98.85,174.77,98.72,175.17,98.83,175.25Z" fill="#263238" style="transform-origin:101.952px 174.182px"/>
<path class="animable" d="M92.63,187.72a11.63,11.63,0,0,0-2.82-.4c-.45,0-.87-.1-1-.4a2.18,2.18,0,0,1,.25-1.32c.37-1.08.76-2.22,1.18-3.4,1.64-4.85,2.8-8.83,2.61-8.89s-1.68,3.81-3.32,8.66l-1.13,3.42a2.54,2.54,0,0,0-.16,1.74,1.09,1.09,0,0,0,.74.61,2.69,2.69,0,0,0,.76.08A11.13,11.13,0,0,0,92.63,187.72Z" fill="#263238" style="transform-origin:90.5127px 180.59px"/>
<path class="animable" d="m92.17 208.2a31.94 31.94 0 0 0 16.6-5.08s-3.9 8.81-16.47 8.1z" fill="#ff9a6c" style="transform-origin:100.47px 207.19px"/>
<path class="animable" d="M93.51,191.86a3.09,3.09,0,0,1,2.75-1.26,2.85,2.85,0,0,1,2,1,1.83,1.83,0,0,1,.21,2.06,2.11,2.11,0,0,1-2.25.65A6.55,6.55,0,0,1,94,193.05a1.83,1.83,0,0,1-.51-.49.58.58,0,0,1,0-.64" fill="#ff9a6c" style="transform-origin:96.0438px 192.499px"/>
<path class="animable" d="m97.75 188.73c-0.28 0-0.21 1.87-1.77 3.26s-3.56 1.25-3.56 1.52c0 0.11 0.45 0.34 1.3 0.34a4.73 4.73 0 0 0 3-1.16 4 4 0 0 0 1.34-2.69c0.05-0.83-0.18-1.28-0.31-1.27z" fill="#263238" style="transform-origin:95.2435px 191.29px"/>
<path class="animable" d="M97.26,166.86c.23.44,1.91,0,3.95-.05s3.74.28,4-.17c.09-.22-.25-.62-1-1a6.59,6.59,0,0,0-3-.61,6.76,6.76,0,0,0-3,.78C97.48,166.23,97.16,166.65,97.26,166.86Z" fill="#263238" style="transform-origin:101.233px 166.04px"/>
<path class="animable" d="M81.68,167.42c.32.38,1.49-.07,2.92-.14s2.65.16,2.91-.26c.12-.2-.09-.59-.63-.94a4.25,4.25,0,0,0-4.7.32C81.69,166.82,81.54,167.23,81.68,167.42Z" fill="#263238" style="transform-origin:84.5864px 166.545px"/>
<path class="animable" d="M118.43,184.68s-8.87,2.62-13.57-19.26c-1.6-7.48-8.43-13.61-8.43-13.61l2.81-.81s17.36,5.16,17.65,5.38,4.27,9.07,4.27,9.07Z" fill="#263238" style="transform-origin:108.795px 167.889px"/>
<path class="animable" d="m116.27 183.83c0-0.93 1-3.16 1.88-3.34 2.44-0.47 6.88-0.43 7.15 5.8 0.36 8.53-8.28 7.14-8.3 6.89s-0.62-6.13-0.73-9.35z" fill="#ffbf9d" style="transform-origin:120.79px 186.865px"/>
<path class="animable" d="M119.46,189.84s.16.1.41.2a1.47,1.47,0,0,0,1.11,0c.89-.37,1.59-1.83,1.56-3.37a4.9,4.9,0,0,0-.5-2.11,1.72,1.72,0,0,0-1.17-1.09.76.76,0,0,0-.86.44c-.1.25,0,.41-.09.43s-.18-.14-.13-.49a1,1,0,0,1,.31-.55,1.16,1.16,0,0,1,.81-.25,2.11,2.11,0,0,1,1.61,1.25,5,5,0,0,1,.62,2.36c0,1.72-.79,3.37-2,3.77a1.58,1.58,0,0,1-1.37-.16C119.49,190.05,119.44,189.86,119.46,189.84Z" fill="#ff9a6c" style="transform-origin:121.298px 186.782px"/>
<path class="animable" d="M112.5,180.42a11.12,11.12,0,0,1-1.27-.27,7.74,7.74,0,0,1-3-1.81,10.18,10.18,0,0,1-1.56-1.87,14.69,14.69,0,0,1-1.25-2.51,52.19,52.19,0,0,1-1.75-6.22c-.57-2.23-1.19-4.34-1.88-6.22a34.65,34.65,0,0,0-2.15-4.84,23.83,23.83,0,0,0-1.91-3c-.25-.35-.46-.59-.6-.77a2,2,0,0,0-.22-.25,1.93,1.93,0,0,0,.19.28c.12.18.33.44.56.79a28.85,28.85,0,0,1,1.84,3,36.75,36.75,0,0,1,2.1,4.84c.67,1.87,1.28,4,1.85,6.2a51.84,51.84,0,0,0,1.77,6.25,14.27,14.27,0,0,0,1.29,2.53,10.57,10.57,0,0,0,1.61,1.89,7.48,7.48,0,0,0,3.09,1.77A4.49,4.49,0,0,0,112.5,180.42Z" fill="#263238" style="transform-origin:104.705px 166.54px"/>
<path class="animable" d="m138.15 226.32-19-7.17-27-5.88-21.75 2.88c-4.59 0.1-12.54 9.74-18.59 20.08-5.42 9.26-9.69 18.57-9.69 18.57l25.31 9.46c1.44 10.77 3.56 25 5.39 30.61 3.12 9.59 4.07 22.75 4.07 22.75l60.11-7.84 0.85-41.29 19.77-2.58c0.01-1.45-7.62-35.91-19.47-39.59z" fill="#ed543d" style="transform-origin:99.87px 265.445px"/>
<path class="animable" d="M136.63,242.87a4.7,4.7,0,0,0,.11,1c.1.66.24,1.62.39,2.8a76.13,76.13,0,0,1,.58,9.32,77.47,77.47,0,0,1-.6,9.31c-.15,1.19-.29,2.15-.39,2.81a5.21,5.21,0,0,0-.12,1,4.44,4.44,0,0,0,.28-1c.16-.66.34-1.61.53-2.8a60.31,60.31,0,0,0,0-18.71c-.19-1.18-.37-2.14-.52-2.79A4.44,4.44,0,0,0,136.63,242.87Z" fill="#263238" style="transform-origin:137.37px 255.99px"/>
<path class="animable" d="m156.86 266.5-19.53 2.11 0.31 5.36-4.34-6.22-6.55 13.59s2.64 7.94 4.07 12.32c3.81 11.75 9.9 24.86 17 24 8.55-1 14.6-11.26 14.32-17.83-0.23-5.94-5.28-33.33-5.28-33.33z" fill="#ffbf9d" style="transform-origin:144.45px 292.1px"/>
<polygon class="animable" points="166.01 344.39 199.88 357.67 187 373.24 158.19 368.23" fill="#ffbf9d" style="transform-origin:179.035px 358.815px"/>
<path class="animable" d="M77,316.92s-.89,38.63,2.65,45.35,37.78,7,37.78,7l54,2.74,6.3-25.26s-39.29-18.24-43-20.35-12.49-5.8-12.49-5.8l-13.22-17Z" fill="#263238" style="transform-origin:127.315px 337.805px"/>
<path class="animable" d="M139.38,369.69a2.62,2.62,0,0,0-.43-.15l-1.24-.36-4.62-1.27-15.53-4.13h-.06a23.46,23.46,0,0,1-2.6-.17,20.22,20.22,0,0,1-4.9-1.15,23.31,23.31,0,0,1-4.24-2,23.89,23.89,0,0,1-9-9.6c-.29-.56-.47-1-.62-1.32a2.07,2.07,0,0,0-.24-.46,2.48,2.48,0,0,0,.16.49c.12.31.28.79.55,1.37a22.66,22.66,0,0,0,2.89,4.59,24.32,24.32,0,0,0,6.08,5.27,23.17,23.17,0,0,0,4.31,2.05,22.71,22.71,0,0,0,2.42.74,24,24,0,0,0,2.56.44,24.69,24.69,0,0,0,2.66.17h0l15.57,4,4.65,1.14,1.26.29A1.53,1.53,0,0,0,139.38,369.69Z" fill="#455a64" style="transform-origin:117.64px 359.385px"/>
<path class="animable" d="m137.77 328.67 9.2-56.24s-1.22-40.48 21.51-37.58 20 38.52 20 38.52-2.94 48.83-4.55 55.88-2.42 14.89-7.06 17.71l-20.63-3.21z" fill="#263238" style="transform-origin:163.176px 290.831px"/>
<path class="animable" d="m155.5 245.09-5.5 13.29 3.41 50.76s29.3 2.51 29 1.71 5.25-25.28 5.25-25.28 1.82-32.49-6.86-38.69-25.3-1.79-25.3-1.79z" fill="#263238" style="transform-origin:168.909px 277.288px"/>
<path class="animable" d="M154.59,309.23s.38,24.24.38,24.24l20.47,11.23L181,311Z" fill="#ffbf9d" style="transform-origin:167.795px 326.965px"/>
<polygon class="animable" points="108.98 303.59 131.33 294.38 144.7 306.36 137.28 330.25 117.67 322.93" fill="#263238" style="transform-origin:126.84px 312.315px"/>
<path class="animable" d="M176.44,346.73l-.27-.16-.82-.41-3.16-1.54L160.54,339l-17.31-8.24L133,325.94l-5.41-2.56-2.77-1.31-1.4-.66a10.2,10.2,0,0,0-1.44-.61,20.5,20.5,0,0,0-6.08-1.23,24.5,24.5,0,0,0-6,.37,30.36,30.36,0,0,0-10.54,4.15,33.88,33.88,0,0,0-7.75,6.73,46.69,46.69,0,0,0-5.09,7.35A67.7,67.7,0,0,0,81.39,350c-.48,1.45-.81,2.59-1,3.37l-.24.88a1.18,1.18,0,0,0-.06.3s0-.09.11-.29l.28-.87c.24-.77.6-1.89,1.1-3.33a70.7,70.7,0,0,1,5.22-11.78,47.83,47.83,0,0,1,5.1-7.26,33.59,33.59,0,0,1,7.69-6.63,30,30,0,0,1,10.4-4.07,23.75,23.75,0,0,1,5.91-.36,20.27,20.27,0,0,1,6,1.21,9.74,9.74,0,0,1,1.42.6l1.4.66,2.77,1.31,5.41,2.55,10.23,4.83,17.35,8.15,11.71,5.47,3.19,1.46.84.37A1.77,1.77,0,0,0,176.44,346.73Z" fill="#455a64" style="transform-origin:128.265px 337.037px"/>
<path class="animable" d="M133.86,327a22.79,22.79,0,0,1,.25-3.68,28.77,28.77,0,0,1,3.21-8.26,51.42,51.42,0,0,0,3.84-8.11,16.88,16.88,0,0,0,.64-2.66,4,4,0,0,0,.07-1c-.08,0-.22,1.41-1,3.56a63.38,63.38,0,0,1-3.94,8,26.64,26.64,0,0,0-3.12,8.41,12.34,12.34,0,0,0-.11,2.74A4.15,4.15,0,0,0,133.86,327Z" fill="#455a64" style="transform-origin:137.772px 315.145px"/>
<path class="animable" d="M187.72,285.57l-.08.26c0,.2-.11.46-.2.78-.17.72-.4,1.72-.71,3-.6,2.61-1.47,6.39-2.49,11.07-.51,2.34-1.06,4.9-1.59,7.67-.13.7-.27,1.39-.36,2.13a3,3,0,0,0,0,.32v.1c0,.05,0,0,0-.09l0-.06s0,0-.05,0a4.17,4.17,0,0,1-.52.05h-1.11c-1.49,0-3-.11-4.61-.2-6.32-.38-13.25-.93-20.53-1.53l-2-.17.19.2c-1-14.11-1.84-26.78-2.48-36-.33-4.56-.6-8.25-.79-10.83-.1-1.25-.18-2.23-.24-2.93,0-.32-.05-.57-.07-.76a1,1,0,0,0,0-.26,1,1,0,0,0,0,.26c0,.19,0,.45,0,.76,0,.7.1,1.69.16,2.94.16,2.58.38,6.27.66,10.84.6,9.18,1.43,21.86,2.35,36v.19h.19l2,.17c7.28.61,14.22,1.14,20.55,1.5,1.58.08,3.12.16,4.63.18h1.12a3.94,3.94,0,0,0,.58-.06.83.83,0,0,0,.21-.08.22.22,0,0,0,.08-.11.21.21,0,0,0,0-.11c0-.05-.13,0,0,0v0a2.11,2.11,0,0,1,0-.23c.08-.7.22-1.41.34-2.1.52-2.77,1.05-5.33,1.54-7.68,1-4.66,1.8-8.44,2.36-11.09l.63-3c.06-.33.12-.59.15-.79A.78.78,0,0,0,187.72,285.57Z" fill="#455a64" style="transform-origin:168.896px 284.74px"/>
<path class="animable" d="M160.74,241.26a3.45,3.45,0,0,0-.65.56c-.41.38-1,1-1.62,1.71a33.65,33.65,0,0,0-7.1,13.64c-.24,1-.4,1.75-.48,2.3a3.25,3.25,0,0,0-.08.86c.07,0,.31-1.19.85-3.08a38.76,38.76,0,0,1,7.05-13.53C159.94,242.19,160.8,241.31,160.74,241.26Z" fill="#455a64" style="transform-origin:155.775px 250.795px"/>
<path class="animable" d="m127.28 320.55a3.33 3.33 0 0 0-0.14-0.81c-0.12-0.51-0.32-1.25-0.6-2.15a44.81 44.81 0 0 0-2.8-6.83 45.53 45.53 0 0 0-3.89-6.27c-0.56-0.75-1-1.35-1.39-1.74a2.82 2.82 0 0 0-0.57-0.59s0.65 1 1.71 2.51a58.89 58.89 0 0 1 3.75 6.29 57.56 57.56 0 0 1 2.89 6.73c0.64 1.76 0.97 2.88 1.04 2.86z" fill="#455a64" style="transform-origin:122.585px 311.355px"/>
<path class="animable" d="M90.52,317.62c-.07,0-.36.85-1,2.19a26.36,26.36,0,0,1-3,4.92,25.56,25.56,0,0,1-4,4.12c-1.14.93-1.91,1.44-1.87,1.5s.22-.08.59-.28a15.33,15.33,0,0,0,1.47-1A21.58,21.58,0,0,0,86.93,325a21.92,21.92,0,0,0,2.9-5.07,15.15,15.15,0,0,0,.57-1.67A2,2,0,0,0,90.52,317.62Z" fill="#455a64" style="transform-origin:85.5843px 323.992px"/>
<path class="animable" d="M199.38,373.61c12.62-.64,15.8-.24,28.42-.88,3.08-.16,14.29.23,16.86-1.47,2.35-1.54,5.36-3,6-5.73,1-4.62-.25-9.85-4.5-12.74a10.2,10.2,0,0,0-5-1.7c-7.45-.59-14.26,4.85-21.71,3.23-2-.43-3.82-1.55-5.82-2a12.78,12.78,0,0,0-8.73,1.4c-2.67,1.38-3.29,1.61-3.29,1.61l-13.26-4.49L184.22,374Z" fill="#fafafa" style="transform-origin:217.603px 362.42px"/>
<path class="animable" d="m188.14 345.34 7 2.28a2.2 2.2 0 0 1 1.46 2.54l-5.43 24.84a2.17 2.17 0 0 1-2.38 1.71l-7.08-0.79a2.18 2.18 0 0 1-1.9-2.62l5.51-26.3a2.19 2.19 0 0 1 2.82-1.66z" fill="#fafafa" style="transform-origin:188.205px 360.98px"/>
<path class="animable" d="M191,376a25.07,25.07,0,0,0,1.29-3.73c.71-2.33,1.6-5.57,2.4-9.21s1.33-7,1.62-9.38c.14-1.21.24-2.2.28-2.88a3.25,3.25,0,0,0,0-1.06,33.23,33.23,0,0,0-.7,3.88c-.4,2.39-1,5.7-1.78,9.31s-1.63,6.88-2.23,9.23A29,29,0,0,0,191,376Z" fill="#263238" style="transform-origin:193.817px 362.87px"/>
<path class="animable" d="m195.39 353.33a11.1 11.1 0 0 0-11-1.75c0 0.19 2.56-0.54 5.65 0s5.26 1.91 5.35 1.75z" fill="#263238" style="transform-origin:189.89px 352.09px"/>
<path class="animable" d="m194.56 362.71a24.66 24.66 0 0 0-5.86-1.84 24.32 24.32 0 0 0-6.08-0.93 45.9 45.9 0 0 0 5.94 1.51c3.29 0.76 5.95 1.43 6 1.26z" fill="#263238" style="transform-origin:188.59px 361.338px"/>
<path class="animable" d="M191.38,372.44c0-.19-2.71.14-5.7-1.14s-4.69-3.37-4.82-3.24.28.64,1,1.43a11.21,11.21,0,0,0,3.55,2.37,10.93,10.93,0,0,0,4.19.84A3.73,3.73,0,0,0,191.38,372.44Z" fill="#263238" style="transform-origin:186.108px 370.386px"/>
<polygon class="animable" points="154.06 325.72 154.59 336.2 175.51 346.24 178.99 328.74" fill="#fafafa" style="transform-origin:166.525px 335.98px"/>
<path class="animable" d="m182.45 322.59-1.57 7.3a2.23 2.23 0 0 1-2.42 1.75l-25.76-2.83a2.23 2.23 0 0 1-2-2.23v-7.27a2.24 2.24 0 0 1 2.46-2.2l27.28 2.79a2.23 2.23 0 0 1 2.01 2.69z" fill="#fafafa" style="transform-origin:166.6px 324.376px"/>
<path class="animable" d="m151.7 328.75a23 23 0 0 0 3.91 0.92c2.44 0.46 5.82 1 9.59 1.46s7.19 0.6 9.68 0.64h2.94a3.72 3.72 0 0 0 1.07-0.11 31.35 31.35 0 0 0-4-0.3c-2.47-0.15-5.88-0.4-9.63-0.82s-7.13-0.92-9.58-1.28a30.43 30.43 0 0 0-3.98-0.51z" fill="#263238" style="transform-origin:165.295px 330.262px"/>
<path class="animable" d="m175.13 330.78a9.53 9.53 0 0 0 1.83-5.59c0.2-3.36-1.11-5.85-1.23-5.76s0.82 2.53 0.62 5.72-1.35 5.55-1.22 5.63z" fill="#263238" style="transform-origin:176.05px 325.104px"/>
<path class="animable" d="m165.53 330.94a25.07 25.07 0 0 0 1.25-6.14c0.44-3.44 0.47-6.25 0.3-6.26s-0.47 2.77-0.9 6.18-0.82 6.18-0.65 6.22z" fill="#263238" style="transform-origin:166.333px 324.74px"/>
<path class="animable" d="M155.34,328.75c.19,0-.42-2.74.55-5.9s2.92-5.11,2.77-5.23-.61.35-1.33,1.21a11.32,11.32,0,0,0-2.44,8.17A3.9,3.9,0,0,0,155.34,328.75Z" fill="#263238" style="transform-origin:156.753px 323.176px"/>
<path class="animable" d="M107.49,248.78s10.69,1.51,11.37,2.17,14.44,16.8,14.44,16.8l-6.55,13.59-12.13-6.25a19,19,0,0,0-3.84-1.15s-12.14-1.65-13-3.09-.38-1.79.51-2,8.15.43,9.77.69a24.79,24.79,0,0,0,4.82-.1s-5.05-1.07-6.2-1.44-12.45-2.65-12.31-4.68,1.52-2.78,8.61-1A50.32,50.32,0,0,0,115,263.93l-15.69-5.11s-6.32-1.88-4.34-3.72,15.5,1.58,15.5,1.58l6,2.12-1.76-3.55s-8.5-2.33-9.6-3.15c-1.36-1-1.57-2-.58-2.87S107.49,248.78,107.49,248.78Z" fill="#ffbf9d" style="transform-origin:113.834px 265.009px"/>
<path class="animable" d="M71,231.77a6.17,6.17,0,0,1-.14,1.2c-.14.87-.32,1.95-.54,3.23-.45,2.73-1,6.51-1.59,10.69s-.93,8-1.19,10.75c-.12,1.29-.23,2.38-.31,3.26a6.49,6.49,0,0,1-.17,1.2,4.8,4.8,0,0,1,0-1.21c0-.78.06-1.9.14-3.28.17-2.77.5-6.59,1-10.78s1.2-8,1.75-10.69c.28-1.36.52-2.46.7-3.21A4.76,4.76,0,0,1,71,231.77Z" fill="#263238" style="transform-origin:69.0109px 246.935px"/>
<path class="animable" d="M141.67,232.82c0-.28-2.66-16.7-3.9-22.51l-19.56,3c-.27,2.43-.36,10.9-.3,13.75A12.63,12.63,0,0,0,120.6,235a7.68,7.68,0,0,0,7.66,2.64,10.4,10.4,0,0,0,6.41,4.3c2.6.4,5.57-.95,6.4-3.45A13.93,13.93,0,0,0,141.67,232.82Z" fill="#263238" style="transform-origin:129.816px 226.16px"/>
<path class="animable" d="m113.18 235.07-3.12 29.93a1.88 1.88 0 0 1-2 1.68l-18.52-1.48a1.87 1.87 0 0 1-1.72-2l2.18-31.47a1.88 1.88 0 0 1 2.18-1.73l19.42 3a1.87 1.87 0 0 1 1.58 2.07z" fill="#263238" style="transform-origin:100.504px 248.33px"/>
<path class="animable" d="M97.54,245s-10.78-.27-11.57.27S69,259.5,69,259.5L73.22,274s11.65-3.74,13-4.18a19.6,19.6,0,0,1,4-.51s12.25.37,13.29-.92.66-1.7-.18-2.09-8.11-.91-9.75-.91a24.87,24.87,0,0,1-4.74-.89s5.16-.23,6.35-.41,12.72-.58,12.92-2.59-1-3-8.33-2.42a50.5,50.5,0,0,1-12-.32L104,256.27s6.54-.82,4.89-3-15.56-1-15.56-1l-6.25,1.11,2.31-3.22s8.77-.9,10-1.53c1.51-.78,1.88-1.7,1-2.73S97.54,245,97.54,245Z" fill="#ffbf9d" style="transform-origin:89.0784px 259.466px"/>
<path class="animable" d="m46.26 256.35 18.08 6.75-0.34 2.51 5.44-6.48 5 13s-8.41 16.53-10.23 20.77c-5.21 12.28-14.47 18.69-21.11 15.97-8-3.26-12.58-11.7-8.93-21.06 2.17-5.57 12.09-31.46 12.09-31.46z" fill="#ffbf9d" style="transform-origin:53.6688px 282.919px"/>
<path class="animable" d="M69,259.5s.15-.15.44-.41l1.33-1.15,5.12-4.37L84,246.72l1.22-1,.64-.52a2.49,2.49,0,0,1,.85-.22c1.11-.12,2.25-.14,3.42-.16,2.35,0,4.82,0,7.42,0h0a5.69,5.69,0,0,1,1.95.28,2.53,2.53,0,0,1,.91.52,2.15,2.15,0,0,1,.58.9,1.35,1.35,0,0,1-.09,1.11,2.58,2.58,0,0,1-.75.79,3.79,3.79,0,0,1-1,.52c-.35.1-.69.18-1,.25-2.77.53-5.69.86-8.71,1.19l.14-.07-2.31,3.21-.19-.31,6.25-1.11h0c2.62-.2,5.32-.33,8.07-.32,1.38,0,2.78.06,4.18.22a12.83,12.83,0,0,1,2.11.39,3.5,3.5,0,0,1,1,.46,1.44,1.44,0,0,1,.65,1,1.31,1.31,0,0,1-.57,1.08,4.21,4.21,0,0,1-1,.55,12.87,12.87,0,0,1-2.11.65c-1.44.31-2.89.46-4.34.7l-8.84,1.34-4.8.72v-.42a52.7,52.7,0,0,0,11.13.37,47.52,47.52,0,0,1,5.46-.19,7.62,7.62,0,0,1,2.69.5,2,2,0,0,1,1.07,1,2.47,2.47,0,0,1,.15,1.42,1.09,1.09,0,0,1-.46.63,3.73,3.73,0,0,1-.61.34,8.58,8.58,0,0,1-1.27.42,24.77,24.77,0,0,1-2.54.5c-1.69.25-3.36.41-5,.54l-2.45.18c-.79.06-1.61.18-2.41.22-1.59.1-3.15.18-4.69.25l0-.38a20.15,20.15,0,0,0,5.18.91c1.74.07,3.43.2,5.08.34.82.08,1.64.16,2.44.26.4.05.8.1,1.19.17a4.05,4.05,0,0,1,.62.16,2.74,2.74,0,0,1,.54.32.88.88,0,0,1,.35.6,1.14,1.14,0,0,1-.14.64,3.46,3.46,0,0,1-.32.52l-.18.23a.92.92,0,0,1-.26.22,7.09,7.09,0,0,1-2.23.53,74.47,74.47,0,0,1-8.27.28l-1.87,0a13.29,13.29,0,0,0-1.79,0,12.85,12.85,0,0,0-3.26.54l-9.38,3-2.48.76-.63.19-.22.06.21-.08.63-.22,2.46-.82,9.34-3.06a21.45,21.45,0,0,1,7-.6,73.92,73.92,0,0,0,8.23-.32,6.72,6.72,0,0,0,2.11-.5.58.58,0,0,0,.17-.14l.17-.22a2.53,2.53,0,0,0,.28-.47c.17-.33.17-.64-.12-.84a2.16,2.16,0,0,0-.47-.28c-.16-.05-.35-.09-.54-.13-.38-.07-.78-.12-1.17-.17q-1.2-.13-2.43-.24c-1.64-.14-3.33-.26-5.06-.33a20.58,20.58,0,0,1-5.27-.9.2.2,0,0,1-.14-.23.2.2,0,0,1,.18-.14h0c1.54-.07,3.1-.15,4.69-.26.8,0,1.57-.16,2.4-.23l2.45-.18c1.64-.14,3.31-.29,5-.55a23.49,23.49,0,0,0,2.5-.49,8,8,0,0,0,1.2-.4c.36-.16.78-.4.83-.68a2,2,0,0,0-.12-1.15,1.61,1.61,0,0,0-.86-.76,7.34,7.34,0,0,0-2.54-.46,47,47,0,0,0-5.41.2A51.87,51.87,0,0,1,87.67,259a.2.2,0,0,1-.18-.24.21.21,0,0,1,.18-.18h0l4.8-.73,8.84-1.34c1.45-.24,2.91-.39,4.31-.69a12.26,12.26,0,0,0,2-.62,4.27,4.27,0,0,0,.89-.5.87.87,0,0,0,.41-.71c-.06-.59-.72-.94-1.37-1.11a11.71,11.71,0,0,0-2-.38,41.16,41.16,0,0,0-4.14-.22c-2.74,0-5.43.11-8,.3h0l-6.26,1.1a.19.19,0,0,1-.22-.16.2.2,0,0,1,0-.15c.81-1.11,1.6-2.22,2.32-3.21a.22.22,0,0,1,.14-.08c3-.32,5.93-.65,8.67-1.16a9.55,9.55,0,0,0,1-.24,3.25,3.25,0,0,0,.86-.46c.54-.37.95-.94.73-1.51a2,2,0,0,0-1.28-1.21,5,5,0,0,0-1.83-.26h0c-2.59-.07-5.07-.1-7.4-.07-1.17,0-2.31,0-3.4.14a2.12,2.12,0,0,0-.72.17l-.63.5-1.22,1L76,253.72,70.81,258l-1.36,1.11C69.15,259.38,69,259.5,69,259.5Z" fill="#ff9a6c" style="transform-origin:89.17px 259.409px"/>
<path class="animable" d="M69,259.5c.11.09-5,6.53-11.36,14.37S46,288,45.85,287.92s5-6.52,11.36-14.37S68.87,259.41,69,259.5Z" fill="#ff9a6c" style="transform-origin:57.4243px 273.71px"/>
</g>
</svg>
